<svg aria-hidden="true" style="position: absolute; width: 0; height: 0; overflow: hidden;" version="1.1" xmlns="http://www.w3.org/2000/svg" xmlns:xlink="http://www.w3.org/1999/xlink">
<defs>
<symbol id="icon-twitter" viewBox="0 0 26 28">
<title>twitter</title>
<path d="M25.312 6.375c-0.688 1-1.547 1.891-2.531 2.609 0.016 0.219 0.016 0.438 0.016 0.656 0 6.672-5.078 14.359-14.359 14.359-2.859 0-5.516-0.828-7.75-2.266 0.406 0.047 0.797 0.063 1.219 0.063 2.359 0 4.531-0.797 6.266-2.156-2.219-0.047-4.078-1.5-4.719-3.5 0.313 0.047 0.625 0.078 0.953 0.078 0.453 0 0.906-0.063 1.328-0.172-2.312-0.469-4.047-2.5-4.047-4.953v-0.063c0.672 0.375 1.453 0.609 2.281 0.641-1.359-0.906-2.25-2.453-2.25-4.203 0-0.938 0.25-1.797 0.688-2.547 2.484 3.062 6.219 5.063 10.406 5.281-0.078-0.375-0.125-0.766-0.125-1.156 0-2.781 2.25-5.047 5.047-5.047 1.453 0 2.766 0.609 3.687 1.594 1.141-0.219 2.234-0.641 3.203-1.219-0.375 1.172-1.172 2.156-2.219 2.781 1.016-0.109 2-0.391 2.906-0.781z"></path>
</symbol>
<symbol id="icon-facebook" viewBox="0 0 16 28">
<title>facebook</title>
<path d="M14.984 0.187v4.125h-2.453c-1.922 0-2.281 0.922-2.281 2.25v2.953h4.578l-0.609 4.625h-3.969v11.859h-4.781v-11.859h-3.984v-4.625h3.984v-3.406c0-3.953 2.422-6.109 5.953-6.109 1.687 0 3.141 0.125 3.563 0.187z"></path>
</symbol>
<symbol id="icon-instagram" viewBox="0 0 24 28">
<title>instagram</title>
<path d="M16 14c0-2.203-1.797-4-4-4s-4 1.797-4 4 1.797 4 4 4 4-1.797 4-4zM18.156 14c0 3.406-2.75 6.156-6.156 6.156s-6.156-2.75-6.156-6.156 2.75-6.156 6.156-6.156 6.156 2.75 6.156 6.156zM19.844 7.594c0 0.797-0.641 1.437-1.437 1.437s-1.437-0.641-1.437-1.437 0.641-1.437 1.437-1.437 1.437 0.641 1.437 1.437zM12 4.156c-1.75 0-5.5-0.141-7.078 0.484-0.547 0.219-0.953 0.484-1.375 0.906s-0.688 0.828-0.906 1.375c-0.625 1.578-0.484 5.328-0.484 7.078s-0.141 5.5 0.484 7.078c0.219 0.547 0.484 0.953 0.906 1.375s0.828 0.688 1.375 0.906c1.578 0.625 5.328 0.484 7.078 0.484s5.5 0.141 7.078-0.484c0.547-0.219 0.953-0.484 1.375-0.906s0.688-0.828 0.906-1.375c0.625-1.578 0.484-5.328 0.484-7.078s0.141-5.5-0.484-7.078c-0.219-0.547-0.484-0.953-0.906-1.375s-0.828-0.688-1.375-0.906c-1.578-0.625-5.328-0.484-7.078-0.484zM24 14c0 1.656 0.016 3.297-0.078 4.953-0.094 1.922-0.531 3.625-1.937 5.031s-3.109 1.844-5.031 1.937c-1.656 0.094-3.297 0.078-4.953 0.078s-3.297 0.016-4.953-0.078c-1.922-0.094-3.625-0.531-5.031-1.937s-1.844-3.109-1.937-5.031c-0.094-1.656-0.078-3.297-0.078-4.953s-0.016-3.297 0.078-4.953c0.094-1.922 0.531-3.625 1.937-5.031s3.109-1.844 5.031-1.937c1.656-0.094 3.297-0.078 4.953-0.078s3.297-0.016 4.953 0.078c1.922 0.094 3.625 0.531 5.031 1.937s1.844 3.109 1.937 5.031c0.094 1.656 0.078 3.297 0.078 4.953z"></path>
</symbol>
<symbol id="icon-takasami" viewBox="0 0 96 96">
<title>takasami</title>
<path class="cls-1" d="M47.21,65.35H42.35V63A2.49,2.49,0,0,0,40,60.5H31.9c-1.78-.25-2.87-1.39-2.82-3.67H24c-1.39,0-1.39-2.43,0-2.43H28V42.82a3.87,3.87,0,0,1,2.48,3.57v8H42.45c2.58.25,4.16,2.13,4.75,4.9Z"/><path class="cls-1" d="M47.41,52a16.77,16.77,0,0,0,3.81-4.66A6.88,6.88,0,0,1,56.32,43a6,6,0,0,0-2.53,3.91,7.07,7.07,0,0,1-2.67,4.51C49.09,52.27,48.15,52.23,47.41,52Z"/><path class="cls-1" d="M50.23,53.22c2.53-.89,5.1-1.73,6.24-3.27,2.08-2.63,4.36-3.52,6.83-3.27a19.33,19.33,0,0,0-5.65,4.61A9.35,9.35,0,0,1,50.23,53.22Z"/><path class="cls-1" d="M47.26,54.65a21,21,0,0,0-5.84-8.72c-1.83-1.88-4.11-2.18-6.34-2.63a28.56,28.56,0,0,1,2.33,3.57A14.16,14.16,0,0,0,47.26,54.65Z"/><path class="cls-1" d="M30,28.45a2.51,2.51,0,0,0,.35,1.73,1.92,1.92,0,0,0,.89-1.58C31.16,27.81,30.27,27.56,30,28.45Z"/><path class="cls-1" d="M28.14,34.45a2.62,2.62,0,0,1,1.24-1.29,2,2,0,0,1-.1,1.83C28.78,35.63,27.89,35.39,28.14,34.45Z"/><path class="cls-1" d="M30.47,34.94a2.63,2.63,0,0,1,.35-1.73,1.92,1.92,0,0,1,.89,1.58C31.66,35.63,30.77,35.88,30.47,34.94Z"/><path class="cls-1" d="M28.34,29a2.84,2.84,0,0,1,.79,1.58,2,2,0,0,1-1.68-.74C27,29.25,27.6,28.5,28.34,29Z"/><path class="cls-1" d="M32.7,29.84a2.37,2.37,0,0,0-.89,1.54,1.86,1.86,0,0,0,1.68-.64C34,30.09,33.49,29.34,32.7,29.84Z"/><path class="cls-1" d="M27.2,32a2.65,2.65,0,0,1,1.73-.15,1.87,1.87,0,0,1-1.29,1.29C26.85,33.31,26.36,32.46,27.2,32Z"/><path class="cls-1" d="M33.64,32.81a2.8,2.8,0,0,0-1.73-.4A2,2,0,0,0,33,33.9C33.74,34.2,34.33,33.45,33.64,32.81Z"/><path class="cls-1" d="M30.42,30.83a.94.94,0,1,1,0,1.88.94.94,0,0,1,0-1.88Z"/><path class="cls-1" d="M47.5,44.25a2.91,2.91,0,0,1-.1-1.58,2,2,0,0,1,1.14,1.14C48.69,44.5,48,44.94,47.5,44.25Z"/><path class="cls-1" d="M44.63,39.6a2.49,2.49,0,0,0,1.34.79,1.92,1.92,0,0,0-.5-1.54C44.93,38.41,44.24,38.85,44.63,39.6Z"/><path class="cls-1" d="M46.46,38.61A2.47,2.47,0,0,0,47.16,40a1.74,1.74,0,0,0,.4-1.54C47.36,37.76,46.51,37.76,46.46,38.61Z"/><path class="cls-1" d="M46,44.1a2.46,2.46,0,0,0,.3-1.54,1.65,1.65,0,0,0-1.24,1C44.83,44.25,45.47,44.75,46,44.1Z"/><path class="cls-1" d="M49.49,42.47a2.57,2.57,0,0,1-1.09-1.09,1.81,1.81,0,0,1,1.58.1C50.58,41.92,50.28,42.72,49.49,42.47Z"/><path class="cls-1" d="M44.38,41.87a2.43,2.43,0,0,0,1.49-.25,1.71,1.71,0,0,0-1.39-.84C43.79,40.83,43.59,41.63,44.38,41.87Z"/><path class="cls-1" d="M49.63,39.7a2.44,2.44,0,0,1-1.34.74A1.67,1.67,0,0,1,48.84,39C49.44,38.56,50.08,39,49.63,39.7Z"/><path class="cls-1" d="M47.36,42.07a.78.78,0,0,0,.59-.94.81.81,0,0,0-1-.59.75.75,0,0,0-.54,1A.72.72,0,0,0,47.36,42.07Z"/><path class="cls-1" d="M56.37,45.69a1.21,1.21,0,0,0,.79-.3,1.16,1.16,0,0,0-.84-.3C55.92,45.19,55.87,45.64,56.37,45.69Z"/><path class="cls-1" d="M59.34,46.13a1.2,1.2,0,0,1-.69-.5,1.09,1.09,0,0,1,.89-.1C59.89,45.74,59.84,46.18,59.34,46.13Z"/><path class="cls-1" d="M59.44,45a1.36,1.36,0,0,1-.89,0,1,1,0,0,1,.69-.54C59.64,44.35,59.84,44.8,59.44,45Z"/><path class="cls-1" d="M56.77,46.43a1.39,1.39,0,0,1,.69-.5.91.91,0,0,1-.25.84C56.91,47.07,56.52,46.83,56.77,46.43Z"/><path class="cls-1" d="M56.82,44.3a1.21,1.21,0,0,0,.79.3,1,1,0,0,0-.4-.74C56.87,43.66,56.52,44,56.82,44.3Z"/><path class="cls-1" d="M58.25,46.78a1.26,1.26,0,0,1-.2-.84,1.06,1.06,0,0,1,.69.54C58.9,46.83,58.55,47.12,58.25,46.78Z"/><path class="cls-1" d="M58.15,43.61a1.82,1.82,0,0,0,0,.89,1.17,1.17,0,0,0,.64-.64C58.8,43.46,58.4,43.26,58.15,43.61Z"/><path class="cls-1" d="M57.46,45.29a.45.45,0,0,1,.89-.15.49.49,0,0,1-.4.54A.48.48,0,0,1,57.46,45.29Z"/><path class="cls-1" d="M44.48,31.13a1.71,1.71,0,0,1-.84-.94,1.38,1.38,0,0,1,1.29.2C45.38,30.78,45.13,31.37,44.48,31.13Z"/><path class="cls-1" d="M40.22,29.49a2.19,2.19,0,0,0,1.29-.1,1.44,1.44,0,0,0-1-.79C39.88,28.55,39.63,29.2,40.22,29.49Z"/><path class="cls-1" d="M41,28a2.12,2.12,0,0,0,1.14.59,1.6,1.6,0,0,0-.5-1.24C41.17,27,40.62,27.36,41,28Z"/><path class="cls-1" d="M43.39,31.82a2.21,2.21,0,0,0-.54-1.19,1.6,1.6,0,0,0-.35,1.29C42.7,32.51,43.39,32.51,43.39,31.82Z"/><path class="cls-1" d="M44.93,29a1.84,1.84,0,0,1-1.29-.2,1.44,1.44,0,0,1,1.14-.69C45.38,28.11,45.57,28.75,44.93,29Z"/><path class="cls-1" d="M41.22,31.18a2.3,2.3,0,0,0,.89-.94,1.46,1.46,0,0,0-1.34.15C40.32,30.73,40.57,31.37,41.22,31.18Z"/><path class="cls-1" d="M43.64,27.12a2.05,2.05,0,0,1-.54,1.14A1.31,1.31,0,0,1,42.75,27C42.9,26.42,43.59,26.42,43.64,27.12Z"/><path class="cls-1" d="M43.3,29.79a.65.65,0,0,0-.1-.94.67.67,0,1,0-.79,1.09A.64.64,0,0,0,43.3,29.79Z"/><path class="cls-1" d="M31.61,15.67A2.7,2.7,0,0,1,31,17.36a2,2,0,0,1-.59-1.73C30.57,14.83,31.51,14.73,31.61,15.67Z"/><path class="cls-1" d="M32.35,21.92a2.93,2.93,0,0,0-1-1.49,2.09,2.09,0,0,0-.25,1.83C31.46,23,32.4,22.86,32.35,21.92Z"/><path class="cls-1" d="M30,22a2.73,2.73,0,0,0,0-1.78,2.12,2.12,0,0,0-1.19,1.39C28.64,22.41,29.48,22.86,30,22Z"/><path class="cls-1" d="M33.09,16.57a2.92,2.92,0,0,0-1,1.44,2.22,2.22,0,0,0,1.78-.4C34.38,17,33.93,16.17,33.09,16.57Z"/><path class="cls-1" d="M28.73,16.57a3,3,0,0,1,.59,1.63,1.9,1.9,0,0,1-1.58-.89C27.35,16.62,28,15.92,28.73,16.57Z"/><path class="cls-1" d="M33.74,19.64A3.24,3.24,0,0,0,32,19.19a2.14,2.14,0,0,0,1,1.54C33.84,21,34.43,20.28,33.74,19.64Z"/><path class="cls-1" d="M27.25,19.34a2.35,2.35,0,0,1,1.73-.1,2,2,0,0,1-1.29,1.24C26.85,20.63,26.41,19.83,27.25,19.34Z"/><path class="cls-1" d="M30.72,18a.87.87,0,0,0-1,.74.91.91,0,1,0,1.78.35A1,1,0,0,0,30.72,18Z"/><path class="cls-1" d="M52.06,31.77a2.3,2.3,0,0,1-.5,1.34,1.61,1.61,0,0,1-.5-1.39C51.22,31.08,52,31,52.06,31.77Z"/><path class="cls-1" d="M52.66,36.72a1.86,1.86,0,0,0-.74-1.14,1.45,1.45,0,0,0-.2,1.44C52,37.61,52.75,37.52,52.66,36.72Z"/><path class="cls-1" d="M50.77,36.82a2.82,2.82,0,0,0,0-1.44,1.6,1.6,0,0,0-.94,1.14C49.73,37.17,50.43,37.47,50.77,36.82Z"/><path class="cls-1" d="M53.25,32.46a2.64,2.64,0,0,0-.84,1.14,1.6,1.6,0,0,0,1.44-.35C54.29,32.81,53.94,32.17,53.25,32.46Z"/><path class="cls-1" d="M49.78,32.46a2.28,2.28,0,0,1,.45,1.34A1.61,1.61,0,0,1,49,33.11C48.64,32.51,49.19,32,49.78,32.46Z"/><path class="cls-1" d="M53.79,34.94a2.09,2.09,0,0,0-1.39-.35,1.65,1.65,0,0,0,.84,1.19C53.84,36,54.34,35.44,53.79,34.94Z"/><path class="cls-1" d="M48.59,34.69a2.71,2.71,0,0,1,1.39-.1,1.56,1.56,0,0,1-1,1C48.3,35.78,48,35.09,48.59,34.69Z"/><path class="cls-1" d="M51.37,33.6a.73.73,0,0,0-.84.59.73.73,0,0,0,1.44.25A.73.73,0,0,0,51.37,33.6Z"/><path class="cls-1" d="M58.2,19.74a2.18,2.18,0,0,0,.1,1.39A1.49,1.49,0,0,0,59.14,20C59.19,19.29,58.5,19,58.2,19.74Z"/><path class="cls-1" d="M56.27,24.34a2.66,2.66,0,0,1,1-.94,1.52,1.52,0,0,1-.2,1.44C56.67,25.33,56,25,56.27,24.34Z"/><path class="cls-1" d="M58.05,24.94a2.37,2.37,0,0,1,.4-1.34A1.47,1.47,0,0,1,59,24.89C59,25.53,58.25,25.68,58.05,24.94Z"/><path class="cls-1" d="M56.87,20.08a2.76,2.76,0,0,1,.5,1.34,1.55,1.55,0,0,1-1.29-.74C55.78,20.13,56.27,19.59,56.87,20.08Z"/><path class="cls-1" d="M60.23,21a2.29,2.29,0,0,0-.84,1.14,1.72,1.72,0,0,0,1.44-.3C61.27,21.37,60.88,20.73,60.23,21Z"/><path class="cls-1" d="M55.68,22.31a2.36,2.36,0,0,1,1.44,0,1.66,1.66,0,0,1-1.14.89C55.33,23.35,55,22.66,55.68,22.31Z"/><path class="cls-1" d="M60.73,23.5a2,2,0,0,0-1.34-.5,1.84,1.84,0,0,0,.74,1.29C60.73,24.59,61.27,24,60.73,23.5Z"/><path class="cls-1" d="M58.35,21.67a.75.75,0,1,1-.15,1.49.75.75,0,0,1,.15-1.49Z"/><path class="cls-1" d="M66.47,15.82a2.69,2.69,0,0,1-.79,1.58,2,2,0,0,1-.45-1.73C65.48,14.88,66.42,14.88,66.47,15.82Z"/><path class="cls-1" d="M66.57,22.06a2.57,2.57,0,0,0-.79-1.58,2,2,0,0,0-.4,1.78C65.63,23,66.57,23,66.57,22.06Z"/><path class="cls-1" d="M64.24,21.92a2.68,2.68,0,0,0,.15-1.73,2,2,0,0,0-1.29,1.24C62.91,22.21,63.7,22.71,64.24,21.92Z"/><path class="cls-1" d="M67.86,16.86a3,3,0,0,0-1.19,1.29,1.93,1.93,0,0,0,1.83-.25C69.1,17.41,68.75,16.52,67.86,16.86Z"/><path class="cls-1" d="M63.55,16.42a2.66,2.66,0,0,1,.4,1.68,2,2,0,0,1-1.49-1C62.16,16.32,62.91,15.72,63.55,16.42Z"/><path class="cls-1" d="M68.21,19.93a3.16,3.16,0,0,0-1.68-.59,2.11,2.11,0,0,0,.89,1.58C68.16,21.32,68.8,20.63,68.21,19.93Z"/><path class="cls-1" d="M61.82,19a2.92,2.92,0,0,1,1.73.1,2,2,0,0,1-1.39,1.14C61.32,20.28,61,19.44,61.82,19Z"/><path class="cls-1" d="M65.38,18a.92.92,0,0,0-1.14.64.93.93,0,0,0,1.78.5A1,1,0,0,0,65.38,18Z"/><path class="cls-1" d="M47,45.79a2,2,0,0,1,2,2,2.07,2.07,0,0,1-2,2,2,2,0,0,1-2-2A2,2,0,0,1,47,45.79Z"/><path class="cls-2" d="M62.81,34.49a7.83,7.83,0,0,1,1.09-4.36,2.47,2.47,0,0,1,2.28-1.19h0a1.47,1.47,0,0,1,.45,2.77c-.89.3-1.54.15-1.93-.54"/><path class="cls-2" d="M57.26,38.61a6.85,6.85,0,0,0-4.06.4,2.41,2.41,0,0,0-1.44,2v0a1.39,1.39,0,0,0,2.53.79A1.31,1.31,0,0,0,54,39.94"/><path class="cls-2" d="M42,34.54c.25-1,.54-2,2.62-2.38,1.49.25,2.58-.25,2.87-.84.64-1,.54-1.73-.35-2.18v0c-1.34,0-1.63.64-1.44,1.44h0"/><path class="cls-2" d="M37.5,39.25c-.89,1-1.83,2.08-2.77,3.12a2.37,2.37,0,0,1-2.82-.15,2.44,2.44,0,0,1-.25-3.17,1.1,1.1,0,0,1,1.58-.35"/><path class="cls-2" d="M39,35.19a1,1,0,0,1,1.29.54A1,1,0,0,1,39.73,37a1,1,0,0,1-1.29-.54A1,1,0,0,1,39,35.19Z"/><path class="cls-2" d="M37.45,38.61a4.68,4.68,0,0,1,1-2,1.11,1.11,0,0,0,1.14.45,1.47,1.47,0,0,0,.1.5A3.92,3.92,0,0,1,39.58,39C39,40.29,37.4,40.19,37.45,38.61Z"/><path class="cls-2" d="M40.47,38.8a3.15,3.15,0,0,1-.84-1.73.17.17,0,0,0,.1,0,.74.74,0,0,0,.54-.59.37.37,0,0,0,.2,0,3.1,3.1,0,0,0,1.24.5c.15.1.3.25.45.35A1.15,1.15,0,0,1,40.47,38.8Z"/><path class="cls-2" d="M42.35,34.94a8,8,0,0,0-1.14,0,2.64,2.64,0,0,1-1,.64s0,0,0,.1a.83.83,0,0,1,0,.59,3.44,3.44,0,0,0,2,.74C43.69,36.92,43.89,35.34,42.35,34.94Z"/><path class="cls-2" d="M38.34,33.41l.15.59c.1.2.15.4.25.59h0v0h0a3,3,0,0,0,.35.5,1.35,1.35,0,0,1,.45,0,0,0,0,0,1,0,0,2.74,2.74,0,0,1,.54-1.34v-.64C39.83,32.12,38.49,32.17,38.34,33.41Z"/><path class="cls-2" d="M36.36,35.24a4.76,4.76,0,0,1,.89.15h0v0c.2,0,.35.15.54.2h0a3.71,3.71,0,0,1,.59.35.81.81,0,0,0,0,.5.15.15,0,0,1,0,.1l-.45.59a2.26,2.26,0,0,1-1.58.25C35.22,37.07,35,35.39,36.36,35.24Z"/><path class="cls-2" d="M38.19,33.55a2.54,2.54,0,0,1,.59,1.73m-.35.45a2.91,2.91,0,0,1-1-.25h0m0,0h0a3.2,3.2,0,0,1-1.09-.89c-.45-1,.79-1.88,1.88-1"/><path class="cls-2" d="M40.32,33.5a3,3,0,0,0-.74,1.63,1.05,1.05,0,0,1,.64.5A4.55,4.55,0,0,0,42,34.2C42.5,33.11,41.36,32.41,40.32,33.5Z"/><path class="cls-2" d="M40.32,22.41a1.18,1.18,0,0,0-1.63.25,1.23,1.23,0,0,0,.25,1.63A1.17,1.17,0,0,0,40.57,24,1.13,1.13,0,0,0,40.32,22.41Z"/><path class="cls-2" d="M41.17,26.77a5.68,5.68,0,0,0-.64-2.63,1.22,1.22,0,0,1-1.44.25,5.72,5.72,0,0,1-.25.54,4.17,4.17,0,0,0-.25,1.68C38.89,28.25,40.82,28.6,41.17,26.77Z"/><path class="cls-2" d="M37.65,26.12a3.62,3.62,0,0,0,1.44-1.73s-.1,0-.15-.1a1.29,1.29,0,0,1-.45-.79c-.1,0-.15,0-.2,0a3.35,3.35,0,0,1-1.58.25l-.59.3A1.33,1.33,0,0,0,37.65,26.12Z"/><path class="cls-2" d="M36.51,21.22a5.93,5.93,0,0,1,1.29.35,3.77,3.77,0,0,0,1,1l-.1.1a1.14,1.14,0,0,0-.2.69A3.81,3.81,0,0,1,36,23.6C34.48,23.1,34.68,21.22,36.51,21.22Z"/><path class="cls-2" d="M41.56,20.53c-.1.25-.2.45-.3.64h0v0h0v0h0l0,0h0l0,0h0v0h0v0h0s0,0,0,.1h0s0,0,0,0v0h0v0h0v0h0v0h0a2.6,2.6,0,0,1-.54.5l-.5-.15,0,0a4.46,4.46,0,0,0-.25-1.68,6.54,6.54,0,0,1,.15-.74c.59-1,2.13-.64,2,.84Zm-.5.84h0"/><path class="cls-2" d="M43.34,23.15a8,8,0,0,0-1,0h0a0,0,0,0,0,0,0H42a0,0,0,0,1,0,0h-.4a4.67,4.67,0,0,0-.74.3,1.1,1.1,0,0,1-.25.54s0,0,0,.1c.1.3.25.54.35.79a3.13,3.13,0,0,0,1.73.74C44.14,25.58,44.88,23.75,43.34,23.15Z"/><path class="cls-2" d="M41.71,20.73a3.36,3.36,0,0,0-1.19,1.83m.3.64a3.43,3.43,0,0,0,1.24,0h0m0,0h0a3.34,3.34,0,0,0,1.44-.74c.84-1-.4-2.38-1.83-1.68"/><path class="cls-2" d="M39.28,20.08a4.47,4.47,0,0,1,.4,2.08,1.24,1.24,0,0,0-.89.4,4.55,4.55,0,0,1-1.58-2.13C36.86,19,38.34,18.55,39.28,20.08Z"/><path class="cls-2" d="M50.87,18.7A1.13,1.13,0,0,1,52,19.88a1.16,1.16,0,1,1-1.14-1.19Z"/><path class="cls-2" d="M47.55,21.62A5.25,5.25,0,0,1,49.68,20a1.21,1.21,0,0,0,1,1l-.15.59a4,4,0,0,1-.84,1.44C48.45,24.19,46.71,23.3,47.55,21.62Z"/><path class="cls-2" d="M50.72,23.3a3.6,3.6,0,0,1,0-2.28h.15a1,1,0,0,0,.84-.35c.1,0,.15,0,.2.1A3.52,3.52,0,0,0,53,22a3.31,3.31,0,0,1,.3.59A1.34,1.34,0,0,1,50.72,23.3Z"/><path class="cls-2" d="M54.64,20.08a5,5,0,0,0-1.24-.5,4.27,4.27,0,0,1-1.39.2v.1a1.07,1.07,0,0,1-.25.69,4.24,4.24,0,0,0,1.83,1.78C55.08,22.86,56.07,21.27,54.64,20.08Z"/><path class="cls-2" d="M51.12,16.47a4.66,4.66,0,0,0-.2.64v0h0a1.87,1.87,0,0,1,0,.74h0a0,0,0,0,1,0,0h0l.15.74a1.48,1.48,0,0,1,.5.2l0,0a4.68,4.68,0,0,1,1.24-1.14,3,3,0,0,0,.35-.69C53.3,15.82,51.86,15.23,51.12,16.47Z"/><path class="cls-2" d="M48,17.41a2.91,2.91,0,0,1,.84.64h0v0h0v0h0l0,0h0a0,0,0,0,0,0,0h0v0h0v0h0v0h0v0h0v0h0v0h0a3.53,3.53,0,0,1,.5.69,1,1,0,0,0-.2.59V20a4,4,0,0,0-.79.4,3.2,3.2,0,0,1-1.83-.5C45.92,18.89,46.46,17,48,17.41Z"/><path class="cls-2" d="M50.82,16.52a3.11,3.11,0,0,1-.2,2.18M49,18.2h0a3.19,3.19,0,0,1-.69-1.49c0-1.29,1.78-1.63,2.48-.2"/><path class="cls-2" d="M53.15,17.51a4.51,4.51,0,0,0-1.58,1.39,1.2,1.2,0,0,1,.45.89,4.93,4.93,0,0,0,2.58-.69C55.68,18.2,54.83,16.91,53.15,17.51Z"/><path class="cls-2" d="M62.26,38.51a1.13,1.13,0,0,0-2.23.35,1.13,1.13,0,0,0,2.23-.35Z"/><path class="cls-2" d="M59.94,42a5.2,5.2,0,0,0,1.29-2.23A1.08,1.08,0,0,1,60.08,39a2.41,2.41,0,0,1-.54.2,6.92,6.92,0,0,0-1.29,1C57.36,41.53,58.45,43.06,59.94,42Z"/><path class="cls-2" d="M57.91,39.25A3.43,3.43,0,0,0,60.08,39a.18.18,0,0,0,0-.15,1.07,1.07,0,0,1,.25-.84l-.15-.15A4.11,4.11,0,0,1,58.9,37a2.82,2.82,0,0,0-.59-.2A1.28,1.28,0,0,0,57.91,39.25Z"/><path class="cls-2" d="M60.43,35.14a5.19,5.19,0,0,1,.64,1.09,6,6,0,0,0,0,1.34H61a1.35,1.35,0,0,0-.64.35,4,4,0,0,1-1.88-1.54C57.81,35,59.14,33.9,60.43,35.14Z"/><path class="cls-2" d="M64.34,38a5.13,5.13,0,0,1-.59.25h-.3v0H63.2l0,0H63v0h0a4,4,0,0,1-.74,0A.68.68,0,0,0,62,38a.15.15,0,0,0,0-.1A4.21,4.21,0,0,0,63,36.53a3.15,3.15,0,0,1,.59-.35c1.09-.35,1.88.94.79,1.83Zm-.89.3h0"/><path class="cls-2" d="M63.85,41c-.25-.3-.5-.54-.69-.74h0v0H63v0h0l0,0h0v0h0v0h-.1v0h0v0h0v0h0a3,3,0,0,0-.69-.35,1.1,1.1,0,0,1-.54.25h-.1c-.1.3-.2.55-.3.79a3.1,3.1,0,0,0,.74,1.68C62.71,43.21,64.49,42.47,63.85,41Z"/><path class="cls-2" d="M64.34,38.26a3,3,0,0,0-2.08.5m-.2.59a4.11,4.11,0,0,0,.84.79h0a0,0,0,0,0,0,0m0,0h0a4,4,0,0,0,1.49.5c1.24-.15,1.34-1.93-.1-2.43"/><path class="cls-2" d="M63.11,36.18A4.55,4.55,0,0,1,62,37.91a1.19,1.19,0,0,0-.89-.35,4.56,4.56,0,0,1,.35-2.48C62.12,33.9,63.45,34.54,63.11,36.18Z"/><path class="cls-2" d="M57.91,29.44a.81.81,0,1,1-1.14-.15A.85.85,0,0,1,57.91,29.44Z"/><path class="cls-2" d="M54.93,29a3.29,3.29,0,0,1,1.78.4.76.76,0,0,0-.15.94,2.16,2.16,0,0,0-.35.2,3.9,3.9,0,0,1-1.14.2C53.94,30.53,53.7,29.25,54.93,29Z"/><path class="cls-2" d="M55.43,31.37a2.26,2.26,0,0,1,1.14-1s0,0,0,.1a.71.71,0,0,0,.59.3v.15A3.39,3.39,0,0,0,57.06,32a2.91,2.91,0,0,1-.2.4A.89.89,0,0,1,55.43,31.37Z"/><path class="cls-2" d="M58.8,32a5.3,5.3,0,0,0-.3-.84,2.89,2.89,0,0,1-.69-.64,0,0,0,0,0,0,0,.84.84,0,0,1-.5.15,2.83,2.83,0,0,0-.1,1.73C57.56,33.45,58.8,33.26,58.8,32Z"/><path class="cls-2" d="M59.14,28.6c-.15,0-.3.15-.45.2a1.33,1.33,0,0,1-.4.35h0a2.74,2.74,0,0,0-.3.4.72.72,0,0,1,.1.35h0a2.41,2.41,0,0,1,1.14.15,2.65,2.65,0,0,0,.5-.15C60.43,29.49,60.13,28.45,59.14,28.6Z"/><path class="cls-2" d="M57.31,27.41a4,4,0,0,1,0,.74h0c0,.15,0,.3,0,.45h0c0,.2-.1.35-.15.54a3.49,3.49,0,0,0-.4.15s0,0,0,.1a4.87,4.87,0,0,0-.54-.25A1.91,1.91,0,0,1,55.63,28C55.63,27,56.91,26.37,57.31,27.41Z"/><path class="cls-2" d="M59,28.5a2.24,2.24,0,0,1-1.24.84m-.4-.2a2.39,2.39,0,0,1,0-.84h0m0,0h0a2.15,2.15,0,0,1,.45-1c.64-.54,1.63.25,1.19,1.24"/><path class="cls-2" d="M59.49,30.14a2.74,2.74,0,0,0-1.44-.25.82.82,0,0,1-.25.64,3.18,3.18,0,0,0,1.49,1C60.23,31.77,60.53,30.73,59.49,30.14Z"/><path class="cls-1" d="M68.4,81l.45-2.38.79,1.93.79-1.93.5,2.38-.2,0-.35-1.73L69.64,81l-.69-1.73L68.6,81l-.2,0Zm2.72,0V78.62h.4a.74.74,0,0,1,.54.2.64.64,0,0,1,.2.5.6.6,0,0,1-.15.45.68.68,0,0,1-.4.25l.69.89-.2.1-.89-1.19h.2a.93.93,0,0,0,.4-.1.53.53,0,0,0,.1-.4.42.42,0,0,0-.1-.35.56.56,0,0,0-.4-.15h-.2V81Z"/><path class="cls-1" d="M61.77,77.68v-.1l.15,0-.15-.25V77L63.2,70l2.53,6.19L68.26,70l1.54,7.73-.64.15-1.09-5.7-2.33,5.7-2.33-5.7-1.14,5.7-.5-.15Zm8.72.1V70.2l.69-.1v7.58ZM61.77,77v.25L58.1,70l0,0v1.34L59.39,74H58.05v.64h1.63l1.58,3.07.5-.15v.1h-.15Zm-3.71-7v1.34h0L56.72,74h1.34v.64H56.37l-1.58,3.07-.59-.2L58.05,70ZM45.33,74.66V74h1.34l-1.34-2.67V70l3.81,7.58-.64.2L47,74.66Zm4.61,1.44a2.41,2.41,0,0,0,.79.79,1.83,1.83,0,0,0,1,.3A1.78,1.78,0,0,0,53,76.74a1.28,1.28,0,0,0,.45-1c0-.69-.59-1.24-1.78-1.58-.1,0-.2,0-.3-.1A2.88,2.88,0,0,1,50,73.27a2,2,0,0,1-.4-1.24,1.85,1.85,0,0,1,.64-1.44,2.36,2.36,0,0,1,1.58-.54,2.3,2.3,0,0,1,1,.2,3,3,0,0,1,1,.69l-.45.5a2.53,2.53,0,0,0-.79-.59,2.6,2.6,0,0,0-.84-.2,1.54,1.54,0,0,0-1.09.45,1.38,1.38,0,0,0-.4,1,1.18,1.18,0,0,0,.15.59,1.57,1.57,0,0,0,.5.5,4.23,4.23,0,0,0,.94.3c.25.1.45.15.59.2a2.82,2.82,0,0,1,1.24.79,1.58,1.58,0,0,1,.4,1.19,2,2,0,0,1-.64,1.54,2.57,2.57,0,0,1-1.73.64,3,3,0,0,1-1.29-.35,3.94,3.94,0,0,1-1-1ZM45.33,70v1.34h0L43.94,74h1.39v.64H43.64l-1.58,3.07-.59-.15v-.15L45.33,70Zm-3.86,7.43h0l0,0Zm0,0v0l-.5.35L37.5,73.67v4h0V70.05h0v3.62l3.12-3.62.64.25-2.92,3.37,3.12,3.71Zm0,0,0,.1,0,0Zm-4-7.38v3.62h0v4l-.69.1V70.2l.69-.15Zm-4.9,4.61V74h1.34L32.6,71.34V70l3.86,7.58-.64.2-1.58-3.07ZM29.08,70.2h.4v.64h-.4V70.2ZM32.6,70l-3.52,6.79v.89l.25,0,1.58-3.07H32.6V74H31.26l1.34-2.67h0Zm-5.7,7.78V70.85H24.82l.2-.64h4.06v.64H27.6v6.83l-.69.1Zm2.18-1-.4.74.4.15Z"/><path class="cls-1" d="M68.4,81l.45-2.38.79,1.93.79-1.93.5,2.38-.2,0-.35-1.73L69.64,81l-.69-1.73L68.6,81l-.2,0Zm2.72,0V78.62h.4a.74.74,0,0,1,.54.2.64.64,0,0,1,.2.5.6.6,0,0,1-.15.45.68.68,0,0,1-.4.25l.69.89-.2.1-.89-1.19h.2a.93.93,0,0,0,.4-.1.53.53,0,0,0,.1-.4.42.42,0,0,0-.1-.35.56.56,0,0,0-.4-.15h-.2V81Z"/>
</symbol>
<symbol id="icon-iteso" viewBox="0 0 96 96">
<title>iteso</title>
<path id="path105" class="cls-1" d="M40.37,40.76a82.92,82.92,0,0,1,7.24-6.44c-7.7-6-14.62-8.65-17.07-6.05s.15,9.29,5.77,16.82q1.89-2.17,4.05-4.33"/><path id="path109" class="cls-1" d="M59.77,45.26c5.88-7.61,8.46-14.43,5.88-16.85s-9.43.2-17.06,6a82.87,82.87,0,0,1,6.66,6c1.61,1.62,3.12,3.25,4.51,4.89"/><path id="path113" class="cls-1" d="M47.94,62.06c-8.51,6.6-16.52,9.83-20.35,7.92a30,30,0,0,0,40.6.21C64.35,72,56.4,68.76,47.94,62.06"/><path id="path117" class="cls-1" d="M34,47.94c-6.62-8.54-9.84-16.56-7.9-20.38a30,30,0,0,0-.21,40.67C24,64.4,27.23,56.42,34,47.94"/><path id="path121" class="cls-1" d="M70.17,27.79c1.89,3.83-1.39,11.8-8.11,20.28,6.58,8.5,9.81,16.48,7.93,20.32a30,30,0,0,0,.18-40.6"/><path id="path125" class="cls-1" d="M55.64,55.26c-1.62,1.61-3.25,3.12-4.89,4.51,7.61,5.88,14.44,8.46,16.86,5.88s-.2-9.43-6-17.06a83.2,83.2,0,0,1-6,6.67"/><path id="path129" class="cls-1" d="M34.32,48.41c-6,7.7-8.65,14.63-6,17.06s9.29-.15,16.82-5.77q-2.17-1.89-4.33-4.05a83.39,83.39,0,0,1-6.44-7.24"/><path id="path133" class="cls-1" d="M48.08,34c8.51-6.6,16.52-9.82,20.35-7.92a30,30,0,0,0-40.67-.17c3.81-1.92,11.81,1.35,20.32,8.09"/><path class="cls-1" d="M54.87,40.79a77.58,77.58,0,0,0-6.75-6.07,77,77,0,0,0-7.33,6.43c-1.48,1.46-2.85,2.94-4.13,4.41a77.45,77.45,0,0,0,6.62,7.58c1.54,1.56,3.1,3,4.65,4.33,1.73-1.44,3.47-3,5.2-4.73a77.26,77.26,0,0,0,6.26-7C58,44.1,56.5,42.43,54.87,40.79ZM49,46.21a.37.37,0,0,0-.42.38l.16,6.71H47.37l.16-6.71a.35.35,0,0,0-.42-.38h0l-6.63.21V45.08l6.63.21a.39.39,0,0,0,.42-.38l-.16-6.71h1.34l-.16,6.71c0,.22.13.34.42.38l6.63-.21v1.34Z"/>
</symbol>
<symbol id="icon-camper" viewBox="0 0 96 96">
<title>camper</title>
<path class="cls-1" d="M25.34,34.39a1.41,1.41,0,0,0-1.4,1.13v7.2c.07.53.47.73,1.1.67a1.87,1.87,0,0,0,1.43-.5,1.42,1.42,0,0,0,.5-1.1V36a1.6,1.6,0,0,0-.5-1.13A1.71,1.71,0,0,0,25.34,34.39Z"/><path class="cls-1" d="M58.21,33.79h-.9a.78.78,0,0,0-.6.27,1.24,1.24,0,0,0-.27.73v3.56a.93.93,0,0,0,.27.67.67.67,0,0,0,.6.33h.9a1.18,1.18,0,0,0,1-1V34.79a1,1,0,0,0-.33-.73A.93.93,0,0,0,58.21,33.79Z"/><path class="cls-1" d="M-.11,23.67V71.33s17-15.22,47.89-15.22c31.56,0,48.11,15.22,48.11,15.22V23.67ZM17.34,52.76a7.45,7.45,0,0,1-7.61,6.77c-2.47-.07-4.12-1.46-4.42-4.79V34.66c.73-3.3,2.8-4.9,6.2-4.87s5.3,1.27,5.7,3.8v6.27c-.2.33-1,.65-2.31,1.25s-1.92.75-2-.05V35.42a1.39,1.39,0,0,0-1.53-1.07,1.58,1.58,0,0,0-1.5,1.27V53.29c0,.75.3,1.05,1.07,1.15a1.58,1.58,0,0,0,1.83-1.05V48a6.36,6.36,0,0,1,2-1.31A6.75,6.75,0,0,1,17.34,46Zm9.5,0c0-.27.07-.43.07-.57V47.82c-.07-.3-.43-.43-1.1-.37a2.66,2.66,0,0,0-1.93,1.2v3.83a2.18,2.18,0,0,0,.4,1.13l-5.07,1.2a1,1,0,0,0,.3-.7V33.76c.73-2.7,2.77-4,6.1-4s5.07,1.43,5.67,4.1V50.42a2.1,2.1,0,0,0,.4,1Zm17.77-3.33a1,1,0,0,0,.27-.6v-6.2l-3.43,7.23-3.23-7v6.47c0,.5.07.8.17.87l-5.33.7a1.45,1.45,0,0,0,.17-.63V31a2.54,2.54,0,0,0-.27-1.2H39l2.57,6.4,3-6.43H50a3.21,3.21,0,0,0-.37,1v17.7a1.61,1.61,0,0,0,.4.9ZM63.68,40a3.56,3.56,0,0,1-3.8,3.47H56.61a.39.39,0,0,0-.33.4v5.07a2.32,2.32,0,0,0,.37.87H51.51a1.45,1.45,0,0,0,.23-.67V30.56a.87.87,0,0,0-.3-.77h8.93a3.35,3.35,0,0,1,3.3,3.3Zm12.1-6.83a.63.63,0,0,1-.6.47H70.54a.45.45,0,0,0-.33.5v4.13c0,.18.15.22.29.26,1.73.41,3.35.57,5,.86a.24.24,0,0,1,.21.26v3.82a.39.39,0,0,1-.33.37c-.23,0-4-.81-4.86-.84-.31,0-.31.21-.31.41v4.13a42.67,42.67,0,0,0,5.47,1.67v4.67L65.28,51c.17-.07.23-.23.27-.53V30.42a1,1,0,0,0-.37-.63H75.41c.2,0,.3.1.4.33Zm9.67,24.37a.9.9,0,0,0,.17-.63V48.32a2.5,2.5,0,0,0-2.43-2.47c-.53,0-.66.21-.83.7v9a.86.86,0,0,0,.27.7l-4.93-1.77c.13,0,.2-.23.27-.57V30.52a1.23,1.23,0,0,0-.4-.73h8.07c3,.1,4.53,1.43,4.6,4v7.43a3.9,3.9,0,0,1-1.6,3.17,4.34,4.34,0,0,1,1.67,3.43v11.3a1,1,0,0,0,.2.63Z"/><path class="cls-1" d="M84.38,34.09l-1-.1a.73.73,0,0,0-.7.3,1.25,1.25,0,0,0-.3.87v4.63a1.46,1.46,0,0,0,.3.9.86.86,0,0,0,.7.43l1,.1a1.11,1.11,0,0,0,.83-.33,1.18,1.18,0,0,0,.33-.83v-4.6a1.52,1.52,0,0,0-.33-.93A1.21,1.21,0,0,0,84.38,34.09Z"/>
</symbol>
<symbol id="icon-anne-klein" viewBox="0 0 96 96">
<title>anne-klein</title>
<path d="M37,44.22v7.46h6.6v-.91H38.28V48H43.1v-.81H38.28v-2h5.28v-.91Zm32.64,0v7.46h6.6v-.91H70.92V48h4.82v-.81H70.92v-2H76.2v-.91Zm-8.68,0v7.46h5.79v-.91H62.24V44.22H60.92Zm19.29,7.46h1.32V44.22H80.21v7.46ZM24.62,44v7.72h1.32V46.45L32.8,52V44.22H31.48V49.6ZM12.34,44v7.72h1.32V46.45L20.51,52V44.22H19.19V49.6ZM86,44v7.72h1.32V46.45L94.17,52V44.22H92.85V49.6Zm-35.79.25v7.46h1.32v-3.1l1.07-.81,3.71,3.91h1.52l-4.31-4.52,4-2.94H55.9l-4.37,3.1v-3.1ZM7.06,49.55l1.27,2.13H9.55L4.82,44,0,51.68H1.32l1.32-2.13.46-.81,1.73-2.84,1.73,2.84H3.1l-.46.81H7.06Zm88.7-5.16a.54.54,0,0,1,0,.76.54.54,0,0,1-.76,0,.54.54,0,0,1,0-.76.53.53,0,0,1,.76,0Zm.06-.06a.6.6,0,0,0-.44-.18.62.62,0,0,0-.62.62.62.62,0,1,0,1.06-.44Zm-.35.41-.11,0h-.11v-.25h.1a.31.31,0,0,1,.15,0,.1.1,0,0,1,0,.1.11.11,0,0,1-.07.11Zm-.34.37h.12v-.27h.09a.28.28,0,0,1,.13,0,.17.17,0,0,1,.06.16v.08h.11V45a.19.19,0,0,0,0-.11.16.16,0,0,0-.12-.07l.1,0a.15.15,0,0,0,.07-.14.17.17,0,0,0-.11-.17.51.51,0,0,0-.19,0h-.24v.68h0Z"/>
</symbol>
<symbol id="icon-nine-west" viewBox="0 0 96 96">
<title>nine-west</title>
<path d="M85.55,70a1.5,1.5,0,0,0,.87-1.26V53.72H82.7a2.17,2.17,0,0,0-2,1.33V51H96v4a2.17,2.17,0,0,0-2-1.33H90.27V68.77A1.5,1.5,0,0,0,91.15,70h-5.6ZM82,25.43a1.5,1.5,0,0,1,.88,1.26V43.2A1.5,1.5,0,0,1,82,44.47H95.32V40.74a2.34,2.34,0,0,1-1.84,1h-6.7V35.92h5.63a2.16,2.16,0,0,1,1.84.84v-4.4a2.16,2.16,0,0,1-1.84.84H86.78v-5h6.7a2.34,2.34,0,0,1,1.84,1V25.43H82ZM95.81,48v-.84H.32V48ZM32,25.43a1.5,1.5,0,0,1,.87,1.26V43.2A1.5,1.5,0,0,1,32,44.47h5.6a1.5,1.5,0,0,1-.87-1.26V26.7a1.5,1.5,0,0,1,.87-1.26Zm-17.93,0A1.5,1.5,0,0,1,15,26.7V38.8L5.34,25.43H.1A1.5,1.5,0,0,1,1,26.7V43.2A1.5,1.5,0,0,1,.1,44.47h4.6a1.5,1.5,0,0,1-.87-1.26v-13L14.08,44.47H17.8V26.7a1.5,1.5,0,0,1,.87-1.26h-4.6Zm50.69,0a1.5,1.5,0,0,1,.87,1.26V38.8L56,25.43H50.78a1.5,1.5,0,0,1,.87,1.26V43.2a1.5,1.5,0,0,1-.87,1.26h4.6a1.5,1.5,0,0,1-.87-1.26v-13L64.77,44.47h3.72V26.7a1.5,1.5,0,0,1,.87-1.26h-4.6ZM35,51a1.5,1.5,0,0,1,.87,1.26V68.77A1.5,1.5,0,0,1,35,70H48.26V66.31a2.34,2.34,0,0,1-1.84,1h-6.7V61.49h5.63a2.16,2.16,0,0,1,1.84.84v-4.4a2.16,2.16,0,0,1-1.84.84H39.71v-5h6.7a2.34,2.34,0,0,1,1.84,1V51H35ZM13.17,57.41,17.12,70h4.24l4.11-17.48A3.84,3.84,0,0,1,26.35,51H22.27a2.77,2.77,0,0,1,.42,1.78l-3.11,13L14.89,51h-2.2l-5,14.82-2.85-13A2.76,2.76,0,0,1,5.31,51H0a3.84,3.84,0,0,1,.87,1.55L4.73,70H9l4.21-12.62ZM70.69,57c-1.17-1.68-3.17-3.67-6-3.56a2.69,2.69,0,0,0-2.91,2.46c-.1.91.23,1.91,2.46,2.65,2.72.91,5.5,1.68,6.77,3.53s1.29,8.45-6.28,8.45a13.77,13.77,0,0,1-5.76-1.29,1.25,1.25,0,0,0-1.07.78v-5.7a7.11,7.11,0,0,0,6.38,3.5c2.27,0,3.37-1.13,3.37-2.4A2.3,2.3,0,0,0,65.9,63c-1.2-.49-5.3-1.53-6.86-3.2-3.4-3.63.19-9.29,6-9.19a9.09,9.09,0,0,1,4.11.91A1,1,0,0,0,70.69,51v6ZM94,67.31a1.31,1.31,0,1,1-1.28,1.3A1.27,1.27,0,0,1,94,67.31V67a1.57,1.57,0,1,0,1.58,1.56A1.56,1.56,0,0,0,94,67v.26Z"/><path d="M93.64,67.94H94c.19,0,.39,0,.39.26s-.21.29-.44.29h-.33v.23H94l.48.78h.31l-.51-.8a.47.47,0,0,0,.47-.5c0-.36-.21-.51-.64-.51h-.69v1.81h.27V67.94h0Z"/>
</symbol>
<symbol id="icon-hush-puppies" viewBox="0 0 96 96">
<title>hush-puppies</title>
<path d="M96,45.94a.75.75,0,0,0-.73-.78h0a.75.75,0,0,0-.77.74s0,0,0,0A.76.76,0,0,0,96,46S96,45.95,96,45.94Zm-.76.64a.65.65,0,1,1,.59-.64A.6.6,0,0,1,95.24,46.58Z"/><path d="M22.15,47.39,19.65,47c-.21,0-.27-.13-.27-.28s.21-.38.84-.38a1.69,1.69,0,0,1,.65.11.44.44,0,0,1,.32.42h2.44c-.07-1.12-1-1.74-3.41-1.74-1.72,0-3.07.37-3.07,1.75,0,.74.42,1.34,1.45,1.49l2.39.36c.28,0,.38.2.38.36s-.18.43-.83.43a1.7,1.7,0,0,1-.71-.11.41.41,0,0,1-.22-.38H17.07c0,1.56,1.77,1.78,3.38,1.78,2.36,0,3.41-.61,3.41-1.9C23.86,48,23.21,47.55,22.15,47.39Z"/><path d="M12.77,48.56c0,.68-.4.9-1.08.9s-1.08-.21-1.08-.9V45.35H8.52v3.29c0,1.69,1,2.2,3.17,2.2s3.17-.51,3.17-2.2V45.35h-2.1Z"/><polygon points="4.45 47.2 2.1 47.2 2.1 45.35 0 45.35 0 50.66 2.1 50.66 2.1 48.54 4.45 48.54 4.45 50.66 6.55 50.66 6.55 45.35 4.45 45.35 4.45 47.2"/><path d="M44.43,45.35H40.1v5.31h2.1V49h2.25c1.49,0,2-.79,2-1.81C46.47,46,45.92,45.35,44.43,45.35Zm-.88,2.36H42.2V46.6h1.35c.53,0,.73.16.73.57S44.08,47.71,43.55,47.71Z"/><polygon points="30.35 47.2 27.99 47.2 27.99 45.35 25.89 45.35 25.89 50.66 27.99 50.66 27.99 48.54 30.35 48.54 30.35 50.66 32.44 50.66 32.44 45.35 30.35 45.35 30.35 47.2"/><path d="M53,48.56c0,.68-.4.9-1.08.9s-1.08-.21-1.08-.9V45.35h-2.1v3.29c0,1.69,1,2.2,3.17,2.2s3.17-.51,3.17-2.2V45.35H53Z"/><path d="M61.84,45.35H57.51v5.31h2.1V49h2.25c1.49,0,2-.79,2-1.81C63.87,46,63.32,45.35,61.84,45.35ZM61,47.71H59.61V46.6H61c.53,0,.73.16.73.57S61.49,47.71,61,47.71Z"/><path d="M70.48,45.35H66.15v5.31h2.1V49h2.25c1.49,0,2-.79,2-1.81C72.51,46,72,45.35,70.48,45.35Zm-.88,2.36H68.25V46.6H69.6c.53,0,.73.16.73.57S70.13,47.71,69.6,47.71Z"/><path d="M74.82,45.35h2.1v5.31h-2.1Zm4.7,5.31h5.64V49.36H81.61v-.71h3.29V47.35H81.61v-.71h3.55V45.35H79.52Zm12.42-3.26L89.43,47c-.21,0-.28-.13-.28-.28s.22-.38.84-.38a1.71,1.71,0,0,1,.65.11.44.44,0,0,1,.32.42h2.44c-.07-1.12-1-1.74-3.41-1.74-1.72,0-3.07.37-3.07,1.75,0,.74.42,1.34,1.45,1.49l2.39.36c.28,0,.38.2.38.36s-.18.43-.83.43a1.71,1.71,0,0,1-.71-.11.41.41,0,0,1-.22-.38H86.85c0,1.56,1.77,1.78,3.38,1.78,2.36,0,3.41-.61,3.41-1.9,0-.9-.65-1.39-1.71-1.54Z"/><path d="M95.36,46a.22.22,0,0,0,.22-.23c0-.17-.11-.25-.31-.25h-.33v.86h.14V46h.14l.22.37h.16Zm-.27-.11v-.25h.17c.09,0,.19,0,.19.12s-.09.14-.2.14Z"/>
</symbol>
<symbol id="icon-poder-judicial" viewBox="0 0 96 96">
<title>poder-judicial</title>
<path class="cls-1" d="M68.61,56.89q-.07,1.11.66.3c.65-.89.57-3.67.5-6.1.08-1.53.56-2.57.47-3.62a14,14,0,0,0-1-4.16c-.16-.28-.85-.29-.69.19a15.23,15.23,0,0,1,.9,3.79,7.09,7.09,0,0,1-.31,2.6,9.14,9.14,0,0,0,0,2c0,.4-.27.44-.31,0A35.24,35.24,0,0,0,68.43,47a6,6,0,0,0-1.28-2,6,6,0,0,1-.7-1.54c-.08-.29-.14-.57-.23-.85l-.28-.89c-.19-.32-.83,0-.72.47L66,44.71a9.4,9.4,0,0,0,1.44,2,2.16,2.16,0,0,1,.39,1.14c.14.93.26,2.29.36,3.82l.51,2.48A9.17,9.17,0,0,1,68.61,56.89Z"/><path class="cls-1" d="M66.86,42.78c0-.22.08-.29.33-.22a.84.84,0,0,1,.52.42.61.61,0,0,1,.09.28l0,.44a1.32,1.32,0,0,0,.11.4l.32.75c.07.34,0,.46-.21.36A4.12,4.12,0,0,1,66.86,42.78Z"/><path class="cls-1" d="M65.32,54.55c.16.83.62.61.58,0a31.35,31.35,0,0,0-.28-4.47,9.71,9.71,0,0,0-1-3.56c-.27-.44-.73-.44-.47.14A11.24,11.24,0,0,1,65,50.21c0,.42-.2.42-.3.08a7.45,7.45,0,0,1-.62-2.16,9.09,9.09,0,0,0-.23-.94,2.62,2.62,0,0,0-.82-1.45A6.84,6.84,0,0,1,61,43c-.4-.91-.89-.3-.7.31A7,7,0,0,0,61.24,45a2.54,2.54,0,0,0,.4.4,6.93,6.93,0,0,1,1.3,1.26,4.43,4.43,0,0,1,.51,1.72,13,13,0,0,0,1.29,3.55A4.44,4.44,0,0,1,65.09,53Z"/><path class="cls-1" d="M61.61,42.88a4.15,4.15,0,0,0,1.12,1.91c.23.2.42,0,.25-.27a4.64,4.64,0,0,1-.69-1.64C62.18,42.44,61.5,42.55,61.61,42.88Z"/><path class="cls-1" d="M67.12,55.34c.1.79.54.84.62,0a24,24,0,0,0-.06-4.87,19.74,19.74,0,0,0-.35-2.65,2.89,2.89,0,0,0-.5-1.1c-.29-.35-.47-.42-.42.12a21.55,21.55,0,0,1,.6,3.34c0,.39-.13.49-.28.18a1.11,1.11,0,0,1-.09-.31l-.44-2.59a4.65,4.65,0,0,0-1-2,9.26,9.26,0,0,1-1.81-3.15c-.2-.71-.55-.65-.61-.12a1,1,0,0,0,.05.46,6.91,6.91,0,0,0,1.66,3,2.42,2.42,0,0,1,.82,1.51,30.08,30.08,0,0,0,1.31,5,3.6,3.6,0,0,1,.29,1.15C67,54.31,67.05,54.87,67.12,55.34Z"/><path class="cls-1" d="M63.88,42.34c-.08-.44.41-.46.69-.13a.72.72,0,0,1,.16.36l.14.67a4.65,4.65,0,0,0,.47,1.11.92.92,0,0,1,.13.31c0,.19,0,.29-.12.28a.31.31,0,0,1-.2-.11A4.85,4.85,0,0,1,63.88,42.34Z"/><path class="cls-1" d="M57.87,44.46a4,4,0,0,0,1.7,1.78,4.34,4.34,0,0,1,2.22,2.14c.57,1.34.83,2.23,1,2.84a1.22,1.22,0,0,0,.22.43c.18.2.39.16.46-.1a1.17,1.17,0,0,0,0-.42c-.18-2.55-.54-4.1-1.23-4.86-.26-.25-.37-.21-.38.05a.57.57,0,0,0,.09.32,4.45,4.45,0,0,1,.41,1.16c.07.38-.12.37-.26.06a3.21,3.21,0,0,0-1.36-1.68A8.19,8.19,0,0,1,58.9,44.7a4.81,4.81,0,0,1-.49-.76c0-.09-.09-.2-.2-.23s-.35.21-.4.43A.38.38,0,0,0,57.87,44.46Z"/><path class="cls-1" d="M58.91,43.66A3.51,3.51,0,0,0,60.26,45c.26.12.41-.07.18-.3a4.06,4.06,0,0,1-.88-1.22C59.36,43.17,58.74,43.4,58.91,43.66Z"/><path class="cls-1" d="M56.08,44.84c-.32-.22-.56.12-.35.51a2.18,2.18,0,0,0,.78.76,2.88,2.88,0,0,0,.54.22c.27.09.52.18.74.28a2,2,0,0,1,.64.43c.86.83,1.49,2,2.43,3.05.23.27.61.1.49-.31A17.33,17.33,0,0,0,60.17,47c-.14-.29-.83-.51-.69-.1l.28.5c.06.09,0,.18-.12.08a5.12,5.12,0,0,0-.73-.88,1.31,1.31,0,0,0-.45-.29c-.26-.11-.58-.23-.94-.36a5.65,5.65,0,0,1-.68-.41C56.62,45.34,56.38,45.12,56.08,44.84Z"/><path class="cls-1" d="M56.83,49.56c2.94,2,5.61,3.88,8.09,5.72.36.25.81.54,1.47.94a.49.49,0,0,1,.12.66,2.56,2.56,0,0,1-3.2.55q-3.28-2.64-6.55-5.2a.73.73,0,0,1-.27-.35c-.14-.36,0-.64.32-.41,2.22,1.75,4.43,3.48,6.6,5.14a1.75,1.75,0,0,0,2.1.23c.12-.1.15-.2.1-.29s-.26-.2-.37-.28l-.72-.52-7.71-5.53C56.37,50,56.37,49.23,56.83,49.56Z"/><path class="cls-1" d="M56.89,50.55l7.57,5.72c.29.26.16.53-.24.39a5.68,5.68,0,0,1-1-.58l-6.39-4.94C56.45,50.77,56.58,50.36,56.89,50.55Z"/><path class="cls-1" d="M56.62,52.32l5,4,.7.54c.21.18-.06.51-.49.3a4.53,4.53,0,0,1-.68-.5q-2.36-1.94-4.64-4C56.13,52.42,56.3,52.09,56.62,52.32Z"/><path class="cls-1" d="M56.63,44.86a2.51,2.51,0,0,0,.84.64c.24.06.33,0,.26-.23a1.23,1.23,0,0,0-.24-.37.91.91,0,0,0-.42-.28C56.66,44.49,56.49,44.63,56.63,44.86Z"/><path class="cls-1" d="M56.44,53c1.6,1.34,2.9,2.6,5,4.31a1.44,1.44,0,0,0,1.34.3c.14,0,.24-.1.39,0a.24.24,0,0,1,.08.44,1.59,1.59,0,0,1-1.38.24,3,3,0,0,1-1-.69c-1.44-1.24-2.84-2.52-4.24-3.81l-.3-.3a.51.51,0,0,1-.17-.23C56,53,56.18,52.83,56.44,53Z"/><path class="cls-1" d="M55.89,53.4a7.83,7.83,0,0,1,1,.93c1.16,1.14,2.3,2.22,3.39,3.12.15.15.17.25,0,.3s-.57-.16-1-.5c-1.18-1.1-2.37-2.26-3.58-3.53C55.56,53.5,55.7,53.26,55.89,53.4Z"/><path class="cls-1" d="M55.64,54q1.89,1.91,3.88,3.69a2.17,2.17,0,0,0,1.33.46c.27,0,.45.33.2.44a1.7,1.7,0,0,1-1.25-.15,4.18,4.18,0,0,1-1.21-.88c-1.33-1.26-2.24-2.15-2.94-2.86a1.29,1.29,0,0,1-.23-.28C55.24,54.06,55.31,53.69,55.64,54Z"/><path class="cls-1" d="M56.12,55.52c1,1,2,2.27,2.64,2.35.31,0,.45.39.16.46a1.61,1.61,0,0,1-1.28-.51l-1.8-2C55.7,55.57,55.92,55.34,56.12,55.52Z"/><path class="cls-1" d="M36.9,38.31c.38.36.12.62-.37.63a2.3,2.3,0,0,1-2.26-1.42,1.23,1.23,0,0,1,.07-1.07,3.85,3.85,0,0,1,.73-1c.16-.17.34-.18.69-.15s.31-.13.13-.29-.2-.17-.07-.31a.93.93,0,0,1,1.06-.09l1.14.33a2.34,2.34,0,0,0,1.27,0,2,2,0,0,1,2.06.53c.19.22.21.4,0,.6a6.05,6.05,0,0,1-1.57,1.06,1.2,1.2,0,0,1-.73,0q-.36-.06-.18-.35a2,2,0,0,1,.88-.43.72.72,0,0,0,.39-.21.25.25,0,0,0,0-.39,1.29,1.29,0,0,0-1.42.39,1.51,1.51,0,0,1-.81.25C36.58,36.13,35.76,37.39,36.9,38.31Zm-1.53-.57c.28.24.43.18.41-.24a1.34,1.34,0,0,1,1-1.54,3.21,3.21,0,0,1,1.08-.11c.21,0,.24-.14.1-.31a1.08,1.08,0,0,0-1-.18,1.81,1.81,0,0,0-.64.54.44.44,0,0,1-.5.08.55.55,0,0,0-.48,0A1.07,1.07,0,0,0,35.37,37.74Z"/><path class="cls-1" d="M36.3,34c-.26-.18-.28-.47.07-.83a6.4,6.4,0,0,1,.85-.69,2.14,2.14,0,0,0,.93-1.6c0-.27,0-.4.16-.27s.44.55.34,1.12a1.45,1.45,0,0,1-.42.76,2,2,0,0,0-.41.92,1.66,1.66,0,0,1-.27.77.35.35,0,0,1-.4.15A3.49,3.49,0,0,1,36.3,34Z"/><path class="cls-1" d="M37.94,34.15c-.2.2,0,.44.2.31A1,1,0,0,0,38.6,33c-.19-.26-.44-.11-.37.12A.84.84,0,0,1,37.94,34.15Z"/><path class="cls-1" d="M38.93,31.41c0,.29.22.3.34.08s-.13-.77.32-.53c.17.09.28,0,.31-.17a1.32,1.32,0,0,0-.46-1c-.13-.13-.22-.08-.28.1A5,5,0,0,0,38.93,31.41Z"/><path class="cls-1" d="M38.8,32.13c-.27.23.06.57.35.49,2.36-1.16,2-3,1.36-3.57-.14-.07-.21,0-.16.11a2.2,2.2,0,0,1-.28,2C39.47,31.63,38.9,32,38.8,32.13Z"/><path class="cls-1" d="M39.26,32.82a23.57,23.57,0,0,0,2.09-1.39q.25-.2.41,0a1,1,0,0,1-.35,1.26,6.53,6.53,0,0,1-2.14,1.23c-.19,0-.24-.07-.16-.26s1.24-.51,1.85-1.11c.23-.24.17-.44-.2-.3s-1,.79-1.43.92C39.07,33.28,39,33.07,39.26,32.82Z"/><path class="cls-1" d="M38.63,34.54c.18-.15,1.47-.55,2.55-1.12.54-.2,1-.07,1.09.19.15.6-.27,1-1.2,1.24-.41,0-.56-.14-.36-.32l.68-.45a.15.15,0,0,0,0-.26c-.09-.06-.27,0-.36,0a10.07,10.07,0,0,0-1.56.87,1.21,1.21,0,0,1-.89.09C38.41,34.72,38.47,34.63,38.63,34.54Z"/><path class="cls-1" d="M41.52,30.83a1.75,1.75,0,0,1,.43-.6c.21-.26.46,0,.39.19a2.3,2.3,0,0,1-.35.5c-.11.17-.09.29,0,.37a.75.75,0,0,1,.17.12c.1.1.2.08.3-.06a1.94,1.94,0,0,0-.25-2.29c-.18-.15-.31-.09-.4.11l-.12.53a1.05,1.05,0,0,1-.24.48.66.66,0,0,0-.23.64C41.3,31,41.42,31,41.52,30.83Z"/><path class="cls-1" d="M43.25,30.48a7.69,7.69,0,0,1,2.28.78,1.18,1.18,0,0,0,.88,0c.09-.1.17-.07.19.06a2.23,2.23,0,0,1-.55,1.2.25.25,0,0,1-.33,0A18.34,18.34,0,0,0,43,31.3c-.18-.08-.09-.27.05-.25a17.49,17.49,0,0,1,2.34,1c.25.09.4,0,.36-.15s-.09-.11-.16-.16a9.29,9.29,0,0,0-2.39-1C43,30.67,43,30.47,43.25,30.48Z"/><path class="cls-1" d="M41.94,35c-.13-.2-.42,0-.35.25a1.31,1.31,0,0,0,.48.77.48.48,0,0,0,.74-.36,1.1,1.1,0,0,0-.43-.92c-.1-.11-.28,0-.2.14C42.46,35.29,42.15,35.52,41.94,35Z"/><path class="cls-1" d="M42.91,34.18c-.17-.21-.42-.13-.31.22a2,2,0,0,0,.55,1c.35.25.74.08,1.16-.43a.64.64,0,0,0-.06-.69,4.25,4.25,0,0,0-1.7-1.12c-.19-.06-.29,0-.14.19a11.74,11.74,0,0,1,1.23,1c.14.2,0,.35-.11.38s-.17,0-.24-.1A1.59,1.59,0,0,1,42.91,34.18Z"/><path class="cls-1" d="M42.77,31.53a5.15,5.15,0,0,1,2.68,1.55.77.77,0,0,1-.12,1,.51.51,0,0,1-.68.06,4.26,4.26,0,0,1-1.05-.77c-.1-.09,0-.21.09-.15l.72.29c.46.09.5-.5.27-.63a12,12,0,0,0-1.92-1C42.49,31.7,42.47,31.5,42.77,31.53Z"/><path class="cls-1" d="M42.3,32.24c-.14-.17-.09-.29.12-.24a4.9,4.9,0,0,1,1.67.85c.12.13.06.25-.12.18l-.3-.15q-.15,0-.11.1c0,.16,0,.25-.16.21-.45-.18-.87-.33-1.26-.46-.14-.06-.18-.17,0-.2C42.38,32.53,42.43,32.42,42.3,32.24Z"/><path class="cls-1" d="M61.21,31a23.57,23.57,0,0,1,7.4,9.25,3.77,3.77,0,0,0,1.31,1.92c.29.24.16.38-.15.47a3.94,3.94,0,0,1-4-1.77c-2.67-4.16-5-6.83-7-8.25-.36-.34-.31-1,.13-.57a28.22,28.22,0,0,1,6.89,7.61,6.29,6.29,0,0,0,1.69,1.73q.74.49.63-.14a24,24,0,0,0-7.26-9.84C60.52,31.09,60.8,30.79,61.21,31Z"/><path class="cls-1" d="M60.12,31.65a26.18,26.18,0,0,1,7.3,8.63c.38.76-.09.87-.45.54A32.51,32.51,0,0,0,59.76,32C59.12,31.65,59.68,31.4,60.12,31.65Z"/><path class="cls-1" d="M59,33.51a21.35,21.35,0,0,1,6.21,7.2c.21.77-.55,1.19-1.35.71-1-.87-3.34-4.12-5.25-5.71-.26-.36-.13-1.15.17-.83a29.51,29.51,0,0,1,5,5.5c.31.43.7.37.44-.13a31.64,31.64,0,0,0-5.25-6C58.62,34,58.5,33,59,33.51Z"/><path class="cls-1" d="M58.4,36.21a15.93,15.93,0,0,1,4.13,4.51c.31,1-.18,1.54-1.36,1.32a3.23,3.23,0,0,1-1.23-.93l-2.42-2.64c-.18-.25,0-.86.28-.61,1,1.07,2.13,2.35,3.32,3.38a.45.45,0,0,0,.67-.62,26.42,26.42,0,0,0-3.55-3.9C58.05,36.47,58.16,36,58.4,36.21Z"/><path class="cls-1" d="M57.8,36.8a22.12,22.12,0,0,1,3.46,3.58c.15.25-.05.45-.25.31a36.81,36.81,0,0,1-3.41-3.42C57.49,37.07,57.65,36.67,57.8,36.8Z"/><path class="cls-1" d="M57.44,38.85a11.71,11.71,0,0,1,2.44,2.73c.32,1.07,0,1.65-1.53,1.33a8.93,8.93,0,0,1-2.24-2.05c-.18-.26,0-.75.27-.57a11.58,11.58,0,0,0,2,1.83c.53.29,1-.05.75-.55a9.9,9.9,0,0,0-2-2.23C56.82,39,57.1,38.62,57.44,38.85Z"/><path class="cls-1" d="M56.53,39.33a9.64,9.64,0,0,1,2.31,2.32c.09.23-.17.37-.37.21l-2-1.9C56.26,39.71,56.33,39.14,56.53,39.33Z"/><path class="cls-1" d="M55.89,41a9.83,9.83,0,0,1,1.66,1.86c.39,1-.79,1.57-1.48,1.29a4.25,4.25,0,0,1-1.57-1.39c-.16-.28.07-.59.3-.44A9.19,9.19,0,0,0,56,43.51a.53.53,0,0,0,.77-.66,8.51,8.51,0,0,0-1.22-1.42C55.44,41.22,55.66,40.85,55.89,41Z"/><path class="cls-1" d="M55.25,41.54a5.32,5.32,0,0,1,1.06,1c.32.4-.11.73-.44.47s-.55-.53-.87-.88c-.09-.09-.2-.2-.2-.34A.28.28,0,0,1,55.25,41.54Z"/><path class="cls-1" d="M54.23,43l1,1.11a.65.65,0,0,1-.11.88l-.74.7c-.25.19-.51-.09-.39-.38s1-.74.56-1.17l-.61-.7C53.74,43.06,54,42.82,54.23,43Z"/><path class="cls-1" d="M53.72,43.48l.49.84c.13.27-.17.49-.34.28l-.57-.86C53.17,43.43,53.61,43.24,53.72,43.48Z"/><path class="cls-1" d="M53.73,29.95a16.71,16.71,0,0,1,3.65,1.69c.76.55,1.12,1.17.9,1.88-.24.4-.53.35-.87.12a15.81,15.81,0,0,0-3.07-1.89c-.35-.13-.34-.68,0-.52a11.05,11.05,0,0,1,2.82,1.61c.48.24.63-.16.4-.4a13.88,13.88,0,0,0-3.49-1.91C53.54,30.19,53.36,29.79,53.73,29.95Z"/><path class="cls-1" d="M54.55,32.17a13.07,13.07,0,0,1,3.32,2.32,1.73,1.73,0,0,1-.24,1.77.54.54,0,0,1-.33.13,2.21,2.21,0,0,1-.86-.36,8.42,8.42,0,0,1-1.29-.91c-.37-.37-.44-1-.12-.76l1.77,1.05c.52.3.72-.39.47-.78s-2-1.36-2.75-1.89C54.25,32.54,54.27,32.1,54.55,32.17Z"/><path class="cls-1" d="M54.75,33.35l2.18,1.34c.25.25-.18.42-.4.31a10,10,0,0,1-1.77-1.26C54.64,33.59,54.59,33.24,54.75,33.35Z"/><path class="cls-1" d="M55.36,35.64l1.46,1.1a1,1,0,0,1,.4,1.17,1.82,1.82,0,0,1-.48.77.55.55,0,0,1-.71,0l-1.09-.8c-.24-.24-.09-.74.2-.62l.82.54c.44.34.62-.33.36-.62a7,7,0,0,0-1.12-1C55,35.84,55.1,35.47,55.36,35.64Z"/><path class="cls-1" d="M55.09,36.93c-.15-.23.07-.48.27-.37L56,37a.29.29,0,0,1-.25.5Z"/><path class="cls-1" d="M54.82,38.22a3.46,3.46,0,0,1,1,.93c.44.64.06,1.09-.24,1.67-.24.25-.49.38-.76.22l-1.09-.81c-.28-.22,0-.82.27-.54l.59.44c.37.25.76-.37.54-.72l-.55-.58C54.41,38.6,54.49,38.08,54.82,38.22Z"/><path class="cls-1" d="M54.15,39.43c-.28-.27.05-.59.26-.45l.39.29c.24.22,0,.65-.25.45Z"/><path class="cls-1" d="M53.48,40.13a5.3,5.3,0,0,1,.87,1.06c.47.77-.8,2.27-1.42,1.63l-.84-1c-.2-.33,0-.7.32-.51l.53.57c.48.34.82-.35.63-.72l-.38-.5C53,40.38,53.24,39.87,53.48,40.13Z"/><path class="cls-1" d="M52.62,41.27c-.15-.26.11-.54.31-.4l.45.44c.19.27-.11.52-.28.4Z"/><path class="cls-1" d="M54.84,46c1.22,1.9,1.6,5.63.75,6.88-.3.35-.64.37-.7-.1a11.94,11.94,0,0,0-1.25-4.45c-.16-.36-.07-1.24.17-.9a10.45,10.45,0,0,1,1.35,3.81c.09.43.27.54.37.1a8.77,8.77,0,0,0-1-4.84C54.32,46.12,54.64,45.78,54.84,46Z"/><path class="cls-1" d="M54.14,46.46A8.71,8.71,0,0,1,55.33,50a.14.14,0,1,1-.29,0,8.17,8.17,0,0,0-1.14-3C53.78,46.78,53.93,46.15,54.14,46.46Z"/><path class="cls-1" d="M50.42,38.2c1.91-1.69,1.54-2.89,1-5s-1.23-2.84-2.17-3.39c-.27-.16-.54-.32-.82-.47a4.55,4.55,0,0,1-1.66-1,1.21,1.21,0,0,1,.3-1.93,1.93,1.93,0,0,1,1-.18,19.35,19.35,0,0,1,10.37,3,3.11,3.11,0,0,0,2.11.62c.48,0,.6.24.34.62a3.39,3.39,0,0,1-3.56.64.21.21,0,0,1-.17-.26l.1-.63c0-.23.27-.3.37,0l.27.45a.65.65,0,0,0,.52.21c.55,0,.78-.18.55-.52a19,19,0,0,0-9.69-3.62,3.28,3.28,0,0,0-1.7.13A.71.71,0,0,0,47.51,28l2.19,1.07a3.32,3.32,0,0,1,1.82,1.82c.61,1.64,1.76,5,.72,6.53A3.7,3.7,0,0,1,50.73,39C50.35,39.12,50.14,38.54,50.42,38.2Z"/><path class="cls-1" d="M33.77,37,32.6,37c-.37,0-.62-.5-.84-1.22a3.2,3.2,0,0,1,.79-3.08c.2-.27.13-.34-.05-.32s-.1-.16,0-.28l.21-.21c.11-.18-.11-.33-.26-.26a6.14,6.14,0,0,0-1.78,1.7,1.15,1.15,0,0,0-.08,1.06l.71,2.5c.22.59.54.86.92.91h1.51A.4.4,0,0,0,33.77,37Z"/><path class="cls-1" d="M32.43,35.74a1.29,1.29,0,0,0,2,.09c.19-.16.11-.38-.09-.34a1.48,1.48,0,0,1-1.63-.19C32.43,35.17,32.24,35.45,32.43,35.74Z"/><path class="cls-1" d="M34.81,33.71c.24-.15.3,0,.14.23A3.3,3.3,0,0,1,32.46,35c-.41-.12-.5-.41-.36-.81A5.56,5.56,0,0,1,33,32.67a1,1,0,0,0,.15-1c-.1-.51.18-.75.57-.9s.77.49.4.76a1.25,1.25,0,0,0-.32.3.57.57,0,0,0-.13.35c0,.07,0,.13,0,.19a.79.79,0,0,0,.06.25.29.29,0,0,1-.06.34,4.67,4.67,0,0,1-.68.78c-.22.37-.17.55.07.59A4.58,4.58,0,0,0,34.81,33.71Z"/><path class="cls-1" d="M33.92,32.45c-.18-.31.25-.85.54-.31a1,1,0,0,1,.1.73.94.94,0,0,1-.44.53c-.17.08-.24,0-.22-.09A.76.76,0,0,0,33.92,32.45Z"/><path class="cls-1" d="M46.11,67.15c1.12.71,1.22,4.15,2.71,4.49.65.17.51-.13.31-.24-1-.33-1.12-4.16-2.69-4.65C45.88,66.67,45.71,66.85,46.11,67.15Z"/><path class="cls-1" d="M47.44,67c1.2.66,1.43,4.7,3,4.58q.5-.09.17-.24c-1-.5-1.29-4.43-2.91-4.66C47.27,66.71,47.18,66.83,47.44,67Z"/><path class="cls-1" d="M49.63,68.3c.6.33.79,3.31,2.27,3.29.32,0,.29-.09.14-.21-1.31-1-.8-3-2.22-3.38C49.51,68,49.45,68.14,49.63,68.3Z"/><path class="cls-1" d="M46.05,65.69a10.73,10.73,0,0,0,2.2.08.35.35,0,0,1-.06.69c-.64.06-2.32.26-2.81-.29-.16-.34-.08-.61.3-.59A1.35,1.35,0,0,1,46.05,65.69Z"/><path class="cls-1" d="M53.62,66.73a.34.34,0,0,1-.67-.12,1.11,1.11,0,0,1,1.13-1.11A1,1,0,0,1,55,67.1a.67.67,0,0,0-.07.76,1.74,1.74,0,0,1,.07,1.6c-.1.38-.08.64.12.74a1,1,0,0,1-.07,1.4c-.89.47-1.48.12-1.9-.7-.16-.47.54-.71.7-.14s1,.15.66-.2a.7.7,0,0,1-.41-1,1.75,1.75,0,0,0-.06-1.8.65.65,0,0,1,.24-.91C54.77,66.45,53.74,65.8,53.62,66.73Z"/><path class="cls-1" d="M45.19,66.17c-.31-1.19-2.3-1.22-2.2.17a.8.8,0,0,0,.29.66.81.81,0,0,1,0,.9,1.74,1.74,0,0,0,.06,1.38,1.28,1.28,0,0,1,.06,1c-.16.33-.28.44-.17.87a1.1,1.1,0,0,0,1.76.49,1.31,1.31,0,0,0,.47-1c-.07-.23-.45-.4-.6-.18l-.24.47a.32.32,0,0,1-.61-.22.79.79,0,0,1,.3-.45.74.74,0,0,0,0-.74,2.06,2.06,0,0,1-.18-1.42l.15-.68a.65.65,0,0,0-.28-.69c-.45-.29-.15-.82.22-.67.21.09.2.2.34.45C44.9,66.92,45.41,66.75,45.19,66.17Z"/><path class="cls-1" d="M45.65,71.9a1.36,1.36,0,0,0,.55.14c1.92,0,3.9,0,6-.09a1,1,0,0,0,.52-.17c.59-.43,1,.21.63.49a2.21,2.21,0,0,1-1.11.37c-1-.06-6.62.56-7.24-.27C44.77,71.92,45,71.65,45.65,71.9Z"/><path class="cls-1" d="M45.68,27.18c-.85,0-1.6.1-1.64,1.33-.07.82.23,1.33,1,1.45,1.87.45,3.27,1.07,3.68,2.71.06.87.27,1.22.46,1.36s.24,0,.22-.19q0-2.58-1.68-3.43a7.94,7.94,0,0,0-2.44-1c-1-.14-.73-1.91.31-1.78C45.91,27.59,46.06,27.28,45.68,27.18Z"/><path class="cls-1" d="M45.19,28c1.32-.41,1.81,1.19.06.91-.24-.08-.28-.24-.07-.29.57-.05.53-.43,0-.41C45,28.21,45,28.07,45.19,28Z"/><path class="cls-1" d="M46.05,29.23a3.3,3.3,0,0,1,2.53.78c.3.27-.43.42-.66.18-.3-.62-1-.78-1.88-.84C45.85,29.33,45.85,29.24,46.05,29.23Z"/><path class="cls-1" d="M47,31.81a3.6,3.6,0,0,1,1.34,1.44,4,4,0,0,0,1.22,1.61.49.49,0,0,1,0,.65l-.9.75a.38.38,0,0,1-.45-.57,2.64,2.64,0,0,1,.32-.36.75.75,0,0,0,.08-.61A5.32,5.32,0,0,0,46.82,32C46.62,31.8,46.8,31.67,47,31.81Z"/><path class="cls-1" d="M46.6,32.94A6.12,6.12,0,0,1,47.91,36a.85.85,0,0,1-.4.81,2.86,2.86,0,0,1-1,.47c-.36,0-.54-.11-.55-.37a12,12,0,0,0-.32-2.74c-.07-.35.22-.36.3-.16a7.2,7.2,0,0,1,.48,2q.11.58.68,0c.32-.61-.07-1.67-.77-2.92C46.19,32.86,46.38,32.7,46.6,32.94Z"/><path class="cls-1" d="M46.08,33.24A6.41,6.41,0,0,1,47,35.37a.6.6,0,0,1,0,.33c-.06.19-.25.21-.3,0a8.05,8.05,0,0,0-.76-2.31C45.81,33.19,45.94,33,46.08,33.24Z"/><path class="cls-1" d="M46.92,32.47a7.5,7.5,0,0,1,1.37,2.35c.12.29-.17.47-.26.25a11.78,11.78,0,0,0-1.23-2.44C46.67,32.41,46.78,32.3,46.92,32.47Z"/><path class="cls-1" d="M45.54,34.75C45.7,36.35,46,38.21,44,38c-.79-.08-.21-1.92,0-2.33s.39-.27.37.09l-.1,1.16c0,.44.43.41.71-.08a4.87,4.87,0,0,0,.13-2C45,34.46,45.38,34.15,45.54,34.75Z"/><path class="cls-1" d="M44.46,35.26c0-.26.34-.3.36-.05a7.27,7.27,0,0,1,0,1.24c0,.35-.58.43-.49,0A6.43,6.43,0,0,0,44.46,35.26Z"/><path class="cls-1" d="M42.58,36.7c.06-.31-.24-.4-.42-.15a5,5,0,0,1-.57.92.41.41,0,0,0,0,.54,1.08,1.08,0,0,0,1.69-.55l.25-1.34c0-.45-.56-.43-.66.16a3.17,3.17,0,0,1-.34,1.17c-.12.21-.36.1-.25-.07A1.83,1.83,0,0,0,42.58,36.7Z"/><path class="cls-1" d="M37.63,36.87c-.31-.3.06-.57.54-.35,1.63,1.31,1.83,2.65,1.05,4-.3.28-.54.18-.45-.16A2.66,2.66,0,0,0,37.63,36.87Z"/><path class="cls-1" d="M26.16,43a4.9,4.9,0,0,0-.35-.7c-.14-.25-.1-.43.06-.54l.27-.18a3.85,3.85,0,0,0,.47-.4c.28-.22.6-.12.65.15a.4.4,0,0,1-.09.35c-.31.45-.68.57-.33,1.1a.38.38,0,0,1-.42.58C26.25,43.28,26.23,43.13,26.16,43Z"/><path class="cls-1" d="M27.29,43.51c-.41-1-.3-1.55.45-2,.4-.24.72.14.53.46-.42.38-.65.53-.36,1.15S27.64,44,27.29,43.51Z"/><path class="cls-1" d="M29,43.5c.17.56-.48.74-.69.27l-.2-.88a.66.66,0,0,1,.3-.76l.39-.37a.38.38,0,0,1,.51.54l-.31.32A.8.8,0,0,0,29,43.5Z"/><path class="cls-1" d="M37.09,37.07c1.47,1.11,2.09,2.33,1.49,3.7-2.21,3-5.49,4.07-4,6.87.18.34,0,.43-.17.29q-2.06-2.2.52-4.88l2.54-2.52c.71-1.05.23-1.89-.8-2.62C36.19,37.38,36.63,36.82,37.09,37.07Z"/><path class="cls-1" d="M35,45.95c.63,2.32,1.72,1.1,4,1.17a2.58,2.58,0,0,1,1.52,4.54c-.38.28-1.16-.06-.6-.63,1.54-1.41.44-2.92-.9-3.2-2.31-.2-4.43.52-4.52-1.85C34.5,45.54,34.92,45.32,35,45.95Z"/><path class="cls-1" d="M37.61,39.51c.16-.51-.11-.69-.41-.41a6,6,0,0,1-2,1.6c-4.51,2.44-3.59,8.66.73,8.93l2.89-.09c.37,0,.54.28.29.72s.11.54.42.25a1,1,0,0,0-.69-1.83c-1.93.15-3.18.19-3.69-.12-2.95-1.37-2.62-5.21.53-7.26C36.66,40.64,37.48,40,37.61,39.51Z"/><path class="cls-1" d="M29.86,42.3a2.81,2.81,0,0,1,1.72,3c-.67,1.52-.82,2.53-.22,2.8A12.77,12.77,0,0,0,33,49.2a4.57,4.57,0,0,1,1.09,2.37c.08.39.36.6.93.79.4.15.17.57-.22.52a1.45,1.45,0,0,1-1.32-1.11c-.24-.87-.25-1.74-1.07-2.23a13,13,0,0,1-1.66-1.1,1.52,1.52,0,0,1-.44-1.62c1.12-2.54.4-3.28-.7-4.07C29.34,42.51,29.41,42.16,29.86,42.3Z"/><path class="cls-1" d="M29.32,43c.6.14.9.75,1,1.74a2.43,2.43,0,0,1-.15,1c-.31.84-.87,1.46-.19,2.69a5.2,5.2,0,0,0,1.84,1.48,2.44,2.44,0,0,1,1,2.26,1.92,1.92,0,0,0,1.54,1.77,1.23,1.23,0,0,0,.88-.1A.63.63,0,0,1,36,54c.23.24.31.46.08.59a2,2,0,0,1-.8.25Q32.5,55,32.12,52A2.06,2.06,0,0,0,31,50.22a6,6,0,0,1-1.75-1.54,2.37,2.37,0,0,1,0-2.28c.53-1.33.62-2.27-.07-2.79C28.8,43.25,28.87,42.92,29.32,43Z"/><path class="cls-1" d="M36.57,54.09a1.28,1.28,0,0,1,.58.13q.14.13,0,.27a.53.53,0,0,1-.69-.22C36.4,54.18,36.42,54.12,36.57,54.09Z"/><path class="cls-1" d="M37.15,53.79A1.13,1.13,0,0,1,38,54c.15.17.14.3,0,.37a1,1,0,0,1-.81-.19C37,54,37,53.87,37.15,53.79Z"/><path class="cls-1" d="M37.9,53.37a1.12,1.12,0,0,1,1,.3c.11.15.09.25,0,.3a.81.81,0,0,1-1-.32C37.75,53.5,37.8,53.42,37.9,53.37Z"/><path class="cls-1" d="M38.88,50.36c.08-.24-.05-.42-.26-.35a1.1,1.1,0,0,0-.31.2,1.13,1.13,0,0,0-.46,1.25.44.44,0,0,0,.52.4.8.8,0,0,0,.38-.18l.27-.26a.23.23,0,0,0,0-.35A.57.57,0,0,1,38.88,50.36Z"/><path class="cls-1" d="M35.74,51.72c-.25-.31-.46.48-.27.65a.73.73,0,0,1,.15.59q-.06.86.73,1c.21,0,.26-.11.14-.24a.94.94,0,0,1-.33-.81A2.09,2.09,0,0,0,35.74,51.72Z"/><path class="cls-1" d="M37.25,53.22c.22.12.17.25-.07.37-.44.19-.91-.37-.9-1a.61.61,0,0,0-.16-.55c-.4-.62-.35-1,0-1.23s.39-.09.35.08a.66.66,0,0,0,.16.64.88.88,0,0,1,.17.86A.8.8,0,0,0,37.25,53.22Z"/><path class="cls-1" d="M38,52.88c.16.19,0,.27-.2.29a1,1,0,0,1-.8-.53,1.09,1.09,0,0,1,0-.73.57.57,0,0,0-.09-.6c-.54-.94.31-1.43,1.06-1.31.17,0,.21.14.06.33A1.1,1.1,0,0,0,37.89,52c.19.17.22.33,0,.5A.28.28,0,0,0,38,52.88Z"/><path class="cls-1" d="M42,50.3a1.54,1.54,0,0,1,.46,1.92,2.56,2.56,0,0,1-.84.71,1.55,1.55,0,0,0-.66.5,2,2,0,0,1-.64.56.62.62,0,0,1-.65,0c-.7-.54-1.79-1-1.43-1.63a1.21,1.21,0,0,1,1.32-.71.81.81,0,0,1,.56.8c0,.19-.14.25-.33.16l-.34-.14c-.22-.06-.32.08-.17.27l.49.39c.2.14.36.08.48-.12a4.92,4.92,0,0,1,1.32-1,.51.51,0,0,0,.21-.72l-.29-.46C41.38,50.5,41.65,50.08,42,50.3Z"/><path class="cls-1" d="M43.52,54.38c.23.09.44-.16.15-.31a3.15,3.15,0,0,0-2.43-.39c-.39.2-.47.55-.14.69l1.17.24.81.28c.19.06.48-.11.22-.3a3.18,3.18,0,0,0-1.05-.4C42,54.13,42,54,42.31,54A3.82,3.82,0,0,1,43.52,54.38Z"/><path class="cls-1" d="M44.18,52.22a.91.91,0,0,0-.46-.23,1,1,0,0,0-.78.24,1.31,1.31,0,0,0-.42.47c-.33.85,1,1.13,1.57,1.24.31,0,.42-.21.22-.34A2.84,2.84,0,0,1,43.26,53c-.33-.58.4-.57.73-.45S44.35,52.42,44.18,52.22Z"/><path class="cls-1" d="M43.75,52.65a5.11,5.11,0,0,1,1.1.46c.19.08.17.41-.07.39A4.27,4.27,0,0,1,43.61,53,.21.21,0,0,1,43.75,52.65Z"/><path class="cls-1" d="M45.75,53.45a3.35,3.35,0,0,0-2.07,1.5c-.29.55-.07.91.4.93a2.28,2.28,0,0,0,.52-.09,4.61,4.61,0,0,1,1.59-.44c.34,0,.31-.4,0-.45a4.47,4.47,0,0,0-1.74.38c-.27.09-.24-.15-.13-.31a3.48,3.48,0,0,1,1.56-1.05A.24.24,0,0,0,45.75,53.45Z"/><path class="cls-1" d="M46.15,54.53c-.21.26-1.44.49-1.06,0C45.26,54.23,46.51,54.08,46.15,54.53Z"/><path class="cls-1" d="M43.49,50.79c.18,0,.19-.08.11-.23a1.29,1.29,0,0,0-.86-.47c-.17,0-.26.05-.28.18,0,.65.35,1.17,1.25,1.48.24,0,.33,0,.21-.23L43.39,51C43.27,50.89,43.3,50.81,43.49,50.79Z"/><path class="cls-1" d="M43.62,49.55c.37,1.18-1.58.48-1.5-1.44,0-.13.06-.21.2-.15a.76.76,0,0,1,.42.82c0,.39.32.65.37.44s0-.14.15-.08A1.21,1.21,0,0,1,43.62,49.55Z"/><path class="cls-1" d="M43.84,50.21a4.22,4.22,0,0,0,1.54,3,.46.46,0,0,0,.68-.37,1.85,1.85,0,0,0-.23-1.12c-.12-.17-.39-.18-.4,0l0,.57c0,.17-.1.26-.28.12a2.69,2.69,0,0,1-.79-1.77C44.48,50.31,43.75,49.69,43.84,50.21Z"/><path class="cls-1" d="M46.26,52.5c0,1.35.23,2.56,1,3.22,1,.36.94-.82.78-1.46-.25-.45-.38-.45-.44-.14v.73c0,.22-.06.33-.28.19a4.69,4.69,0,0,1-.61-2.31C46.68,52.2,46.24,52,46.26,52.5Z"/><path class="cls-1" d="M46.92,53.38c.05-.29.34-.25.45,0l.12.61C47.53,54.84,46.77,54.29,46.92,53.38Z"/><path class="cls-1" d="M44.77,51.15c.2-.43.58.13.57.38C45.33,52.11,44.69,51.66,44.77,51.15Z"/><path class="cls-1" d="M48.73,30.47a1.51,1.51,0,0,1,1.66,1c.22.68-.38.93-.75.65-.18-.1-.13-.22,0-.23.3,0,.47-.08.34-.37a1,1,0,0,0-1.08-.67C48.45,30.82,48.48,30.55,48.73,30.47Z"/><path class="cls-1" d="M49.24,31.17c.48,0,.36.65,0,.35C49.09,31.34,49.11,31.24,49.24,31.17Z"/><path class="cls-1" d="M49.86,32.52a1.18,1.18,0,0,1,1.2,1.12c.12.49.11.89-.18,1.12s-1.09-.06-1.15-.29,0-.32.29-.24.54.08.6-.26c0-.67-.29-1-.79-1A.2.2,0,0,1,49.86,32.52Z"/><path class="cls-1" d="M49.85,33.37c.22,0,.34.08.33.45-.07.2-.21.2-.41,0S49.7,33.45,49.85,33.37Z"/><path class="cls-1" d="M50.41,35c.67,0,1.15.3,1.08,1.13a2.18,2.18,0,0,1-.94,1.46c-.19.08-.3,0-.33-.2a1,1,0,0,1,.45-1c.18-.34.14-.53-.11-.62L50,35.58C49.73,35.37,49.94,35,50.41,35Z"/><path class="cls-1" d="M50,36q.44-.2.49.31c0,.19-.13.27-.42.22S49.83,36.07,50,36Z"/><path class="cls-1" d="M48.29,27.5a4.32,4.32,0,0,1,4.44,2.13c.08.22,0,.37-.33.39a2.06,2.06,0,0,1-1.23-.51c-.1-.11-.05-.15.06-.15q.72,0,.37-.41a3,3,0,0,0-2.88-.89C48.24,28,47.81,27.57,48.29,27.5Z"/><path class="cls-1" d="M50,28.54a1.75,1.75,0,0,1,.87,0c.2.13.28.25.08.39a1.18,1.18,0,0,1-.86,0C49.88,28.79,49.84,28.6,50,28.54Z"/><path class="cls-1" d="M51.94,28.05a4.82,4.82,0,0,0,2.41,1.72c.36.09.53,0,.5-.27a1.28,1.28,0,0,0-.93-1.17c-.15,0-.2,0-.12.12.2.49-.07.55-.35.32a2.75,2.75,0,0,0-1.31-.9C51.85,27.82,51.81,27.89,51.94,28.05Z"/><path class="cls-1" d="M49.55,63A9.08,9.08,0,0,0,49,67c0,.37.12.62.5.69h2.28c.37,0,.6-.19.59-.55q.11-1.73,1-1.82l1.8-.43c.29-.05.43,0,.5.11a.9.9,0,0,0,.91.11c.13-.09.22-.18.07-.21s-.25-.41,0-.74c1.25-.77,1.66-1.42,1.46-2.49,0-.38-.67-.44-.81,0a2.32,2.32,0,0,1-.62,1.41,7.22,7.22,0,0,1-3.41,1.31,1.39,1.39,0,0,0-1.31.88l-.42,1.2q-.07.41-.4.42l-1.1,0c-.22,0-.31-.11-.3-.29a9.48,9.48,0,0,1,.28-2.77C50.31,63.33,49.8,62.31,49.55,63Z"/><path class="cls-1" d="M54.91,61.11c-.84.26-.34,1.25.17.82a1.9,1.9,0,0,1,.89-.62A1.78,1.78,0,0,0,54.91,61.11Z"/><path class="cls-1" d="M54.79,63.51c-.84.26-.94-.83-.29-.75a2.63,2.63,0,0,0,1.08.1A1.65,1.65,0,0,1,54.79,63.51Z"/><path class="cls-1" d="M53.27,61.08c-.75.53.09,1.29.44.71a2,2,0,0,1,.68-.89A2,2,0,0,0,53.27,61.08Z"/><path class="cls-1" d="M50.66,64.93c-.53.71.45,1.22.6.56a2,2,0,0,1,.37-1A1.8,1.8,0,0,0,50.66,64.93Z"/><path class="cls-1" d="M60.57,63.32c-.88.06-.61,1.14,0,.83a1.88,1.88,0,0,1,1-.4A1.81,1.81,0,0,0,60.57,63.32Z"/><path class="cls-1" d="M61.18,62.05c-.51.73.48,1.2.62.55a1.94,1.94,0,0,1,.27-1A1.59,1.59,0,0,0,61.18,62.05Z"/><path class="cls-1" d="M62.47,62.13c-.71.53.09,1.3.43.71a2,2,0,0,1,.64-.89A1.79,1.79,0,0,0,62.47,62.13Z"/><path class="cls-1" d="M62.54,64.1c-.84.26-.94-.83-.29-.76a2.61,2.61,0,0,0,1.08.1A1.66,1.66,0,0,1,62.54,64.1Z"/><path class="cls-1" d="M53.18,63.38c-.46.76-1.24,0-.71-.37a2.66,2.66,0,0,0,.87-.65A1.71,1.71,0,0,1,53.18,63.38Z"/><path class="cls-1" d="M48.11,61.45c.89-.08.8,1,.16.83A1.94,1.94,0,0,0,47.19,62,1.83,1.83,0,0,1,48.11,61.45Z"/><path class="cls-1" d="M45.78,59.95c.8.41.14,1.32-.3.79a2,2,0,0,0-.8-.78A1.81,1.81,0,0,1,45.78,59.95Z"/><path class="cls-1" d="M44,60.31c.9.07.63,1.17,0,.85a2,2,0,0,0-1-.41A1.82,1.82,0,0,1,44,60.31Z"/><path class="cls-1" d="M44.82,62.79c.9,0,.62-1.1,0-.81a1.93,1.93,0,0,1-1,.37A1.89,1.89,0,0,0,44.82,62.79Z"/><path class="cls-1" d="M46,62c.85.3,1-.79.31-.75a2,2,0,0,1-1.09,0A2,2,0,0,0,46,62Z"/><path class="cls-1" d="M39.76,61c.81.42,1.06-.69.4-.73a1.88,1.88,0,0,1-1.08-.19A2.05,2.05,0,0,0,39.76,61Z"/><path class="cls-1" d="M37.45,61.34c.83.38,1-.74.36-.75a1.88,1.88,0,0,1-1.09-.13A2.06,2.06,0,0,0,37.45,61.34Z"/><path class="cls-1" d="M36.43,59.13c.88.21.44,1.07-.12.87-.14,0-.46-.46-1-.55A1.93,1.93,0,0,1,36.43,59.13Z"/><path class="cls-1" d="M32.78,56.45c.31.87-.64,1-.78.37-.1-.1.13-.64-.09-1.14A2,2,0,0,1,32.78,56.45Z"/><path class="cls-1" d="M31.37,55.92c.31.87-.64,1-.78.37-.1-.1.13-.64-.09-1.14A2,2,0,0,1,31.37,55.92Z"/><path class="cls-1" d="M30.73,57.83c.7.35,1.06-.54.44-.75a2.06,2.06,0,0,1-1.09-.37A1.7,1.7,0,0,0,30.73,57.83Z"/><path class="cls-1" d="M32.45,58.81c.66.43,1.11-.42.51-.7a2.05,2.05,0,0,1-1-.48A1.7,1.7,0,0,0,32.45,58.81Z"/><path class="cls-1" d="M49.1,59c.24,0,.4.1.39.3a4.69,4.69,0,0,0,0,.76c0,.24,0,.37-.22.39-.46,0-.8.15-.69.54s0,.5-.28.35A1.27,1.27,0,0,1,49.1,59Z"/><path class="cls-1" d="M50.07,61c.18-.16.43-.29.62,0a1.93,1.93,0,0,0,.49.54.39.39,0,0,1,0,.54c-.31.28-.52.5,0,.9.18.1,0,.26-.25.29A1.27,1.27,0,0,1,50.07,61Z"/><path class="cls-1" d="M58.72,60.35a.34.34,0,0,1,.52-.06c1.25.8.46,2.7-.73,2.32-.13-.05-.15-.11-.06-.17q.61-.58,0-.93a.34.34,0,0,1-.17-.51A5.56,5.56,0,0,0,58.72,60.35Z"/><path class="cls-1" d="M55.77,58c.54.11.82,1.1,1.8.93a1,1,0,0,1,1,1.14,2.22,2.22,0,0,1-1.16,1.18.76.76,0,0,1-.9-.05l-.62-.49c-.18-.11-.31-.12-.38,0s-.21,0-.19-.24,0-.38-.21-.15c-.3.4-.57.5-.81.1s-.09-.49-.31-.3a5.23,5.23,0,0,1-.89.88c-.2.13-.34.25-.36.37a.79.79,0,0,1-1.12.5c-.49-.32-.68-.58-.71-.81a.86.86,0,0,1,.4-1,6,6,0,0,0,1.34-.76c.17-.14.15-.23,0-.27a2.59,2.59,0,0,0-1.26.26.33.33,0,0,0-.19.22,1,1,0,0,1-.46.9c-.26.16-.47.21-.62,0a1.66,1.66,0,0,1-.15-.3,3.77,3.77,0,0,1,0-.89,2.5,2.5,0,0,1,.1-.35.67.67,0,0,1,.79-.32,2.71,2.71,0,0,0,1.42,0,1.46,1.46,0,0,1,1.15,0,.34.34,0,0,1,.15.48,5.37,5.37,0,0,1-1.25,1.24c-.22.22-.15.49.18.19A6.94,6.94,0,0,1,54,59c.13-.06.23-.08.28,0s.16.07.27-.09a.88.88,0,0,1,.37-.38.26.26,0,0,1,.32,0,6.85,6.85,0,0,1,1.14,1.29c.16.28.34.38.53.27.41-.22.38-.42.06-.6a5.9,5.9,0,0,1-1-.52,1.47,1.47,0,0,1-.56-.78C55.37,57.94,55.53,57.9,55.77,58Z"/><path class="cls-1" d="M50.75,56.15l1,1.27c.11.14.22.12.33,0s.29-.12.34.11c.18.76-.51.93-1,.43L50.3,56.48C50.11,56.12,50.55,55.93,50.75,56.15Z"/><path class="cls-1" d="M51.47,55.83c.83,1,1.23,2.18,2.43,2.76q.53.15.62-.41a2.49,2.49,0,0,0-.2-1.36l-.92-1.95c-.14-.29-.27-.27-.37.06A1.4,1.4,0,0,0,53.28,56a11.23,11.23,0,0,1,.58,1c.25.57-.1.84-.38.55l-.88-1.22a1.54,1.54,0,0,0-.84-.78C51.38,55.45,51.28,55.54,51.47,55.83Z"/><path class="cls-1" d="M52.59,56c-.09-.23.09-.44.29-.25l.69,1c.26.35-.21.56-.3.37Z"/><path class="cls-1" d="M54.61,55.49c-.14-.5-.29-.57-.45-.63s-.26.05-.23.18a3.94,3.94,0,0,0,1.41,2.55c.34.08.56,0,.51-.31A8.44,8.44,0,0,0,55.26,55a1.88,1.88,0,0,1-.19-.63c0-.3-.17-.36-.35-.14a1,1,0,0,0,0,.91l.46,1.13c.15.43-.08.41-.19.24A2.78,2.78,0,0,1,54.61,55.49Z"/><path class="cls-1" d="M53.55,48.76c.71,1.25,1.34,4.36.89,5.26q-.27.58-.78.24c-.6-.47-1.14-2-1.78-3.17a1.29,1.29,0,0,1-.17-.84c.06-.31.17-.37.32-.19.53.94,1,2.23,1.52,3,.16.24.45.24.44-.19a7.33,7.33,0,0,0-.9-3.63C52.92,49,53.35,48.36,53.55,48.76Z"/><path class="cls-1" d="M52.19,49.84c-.17-.27,0-.56.32-.41a3.74,3.74,0,0,1,1.2,2.7c0,.34-.28.36-.37.14A9.07,9.07,0,0,0,52.19,49.84Z"/><path class="cls-1" d="M49.25,51.82A11.58,11.58,0,0,0,52,55.28a.56.56,0,0,0,.83-.5,7.27,7.27,0,0,0-1.34-4,.35.35,0,0,0-.59.32c.36,1.07.92,1.81,1.26,2.92.13.46-.13.54-.35.33a29,29,0,0,1-2.07-2.88C49.33,51,49,51.4,49.25,51.82Z"/><path class="cls-1" d="M49.69,50.58a4.65,4.65,0,0,1,1.87,2.67c.11.4-.15.49-.29.28a12.54,12.54,0,0,0-1.78-2.68C49.33,50.66,49.46,50.47,49.69,50.58Z"/><path class="cls-1" d="M46.69,52c1,1,1.94,2.11,2.93,3.4.53.53,1.14.35,1.12-.42-.11-1.2-1-2.18-2-3.17-.36-.25-.52.07-.36.19a16.08,16.08,0,0,1,1.72,2.29c.25.56-.17.74-.4.48A26.77,26.77,0,0,0,47,51.69C46.72,51.44,46.41,51.75,46.69,52Z"/><path class="cls-1" d="M47.48,51.27,49.74,54c.24.34,0,.45-.22.29l-2.26-2.59C47.08,51.37,47.23,51,47.48,51.27Z"/><path class="cls-1" d="M55.06,29a.83.83,0,0,1,.11.57.43.43,0,0,0,.09.42c.34.27,1.29,1,1.53.64a.72.72,0,0,0-.37-1.15c-.12-.07-.18-.06-.15.05.06.54-.53.45-.57.09a1.16,1.16,0,0,0-.51-.73C54.95,28.74,54.95,28.82,55.06,29Z"/><path class="cls-1" d="M52.26,31.7c.78.71,2.08.58,1.18-1-.09-.08.15-.13-.45-.63-.07-.08-.19-.1-.18,0s-.09.12-.2.15a3.34,3.34,0,0,1-.76,0c-.27,0-.18.38.17.46,1.43,0,1.16.93.32.68C52.18,31.39,52.1,31.44,52.26,31.7Z"/><path class="cls-1" d="M53,34c.54.74,1.17-.54,0-.93l-.42-.33c-.19-.2,0-.49.21-.36a.89.89,0,0,0,.89.1c.19-.13.37-.19.38.19a3.65,3.65,0,0,0,.41,1.68c.51,1.22-.87,1.28-1.56.1C52.71,34.05,52.86,33.84,53,34Z"/><path class="cls-1" d="M51.69,41.58a9.63,9.63,0,0,1,2,4.42c0,.4-.23.62-.53.28-.49-.7-1.36-2.28-2-3.08-.2-.44.08-.79.3-.51a10.73,10.73,0,0,1,1.19,1.91c.11.23.28.17.17-.11a10.41,10.41,0,0,0-1.29-2.41C51.31,41.82,51.53,41.39,51.69,41.58Z"/><path class="cls-1" d="M51,43.53A18.4,18.4,0,0,1,53,46.7c.76,1.76-.51,3.05-1.4,1.88A29,29,0,0,1,50,45.65c-.22-.48.12-.8.4-.49a20.15,20.15,0,0,0,1.53,2.77c.32.48,1,.06.58-.76A17.14,17.14,0,0,0,50.66,44C50.42,43.52,50.79,43.27,51,43.53Z"/><path class="cls-1" d="M50.42,45c-.18-.35.1-1.1.34-.6l1.38,2.35c.26.46-.26.71-.41.49Z"/><path class="cls-1" d="M49.87,45.81a17.84,17.84,0,0,0,1.39,2.79c.87,1.52-.74,2.7-1.65,1.45l-2-2.93a.33.33,0,1,1,.49-.43c.65.89,1.29,2.14,2,2.88.4.52,1.09.15.66-.6a26.32,26.32,0,0,1-1.49-3C49.06,45.68,49.62,45.19,49.87,45.81Z"/><path class="cls-1" d="M48.73,45.75l1.57,2.79c.34.67-.15.76-.39.42l-1.47-2.54c-.21-.29,0-.4,0-.54C48.31,45.6,48.59,45.45,48.73,45.75Z"/><path class="cls-1" d="M47.22,47.1a13.68,13.68,0,0,1,1.88,3.2c.43,1.48-1,1.42-1.41.94a22,22,0,0,1-2.74-3.31c-.26-.42.22-.68.49-.41A30.13,30.13,0,0,0,48,50.61c.31.35.66-.1.45-.43a19.06,19.06,0,0,0-1.83-2.92C46.32,46.91,47,46.8,47.22,47.1Z"/><path class="cls-1" d="M45.83,46.78a33.64,33.64,0,0,1,2.08,2.81c.17.29,0,.53-.25.34a8,8,0,0,1-2.1-2.85C45.49,46.85,45.67,46.59,45.83,46.78Z"/><path class="cls-1" d="M44.32,47.71a16.19,16.19,0,0,1,2.44,3.15c.19.43,0,.58-.36.55-1.65-.45-3-2.45-4.08-3.94-.23-.35.27-.74.53-.41.77,1,1.59,2.06,2.52,3.08.23.14.3,0,.16-.18-.44-.64-1-1.34-1.62-2.07C43.7,47.56,44.09,47.46,44.32,47.71Z"/><path class="cls-1" d="M49.82,36.44,50,38.83a1.89,1.89,0,0,1-.65,1.51c-.31.2-.39,0-.31-.51s.45-.49.34-1.12-.09-1.41-.13-2.12C49.22,36.12,49.69,35.92,49.82,36.44Z"/><path class="cls-1" d="M49,36.85a11.75,11.75,0,0,1,0,3.22c-.34,1.21-1.69,1.57-2,.49a7.86,7.86,0,0,1,.27-3.06c.1-.27.43-.3.44.07A11.35,11.35,0,0,0,47.55,40c.07.59.46.41.81-.25a7.77,7.77,0,0,0,.1-2.89C48.42,36.44,48.93,36.21,49,36.85Z"/><path class="cls-1" d="M48.23,37a7,7,0,0,1,0,2.6c0,.26-.35.28-.39,0l0-2.58C47.88,36.75,48.13,36.62,48.23,37Z"/><path class="cls-1" d="M46.83,38l-.27,2.52c0,.67-.59,1-1.5,1.17a1.23,1.23,0,0,1-1.1-.37,1,1,0,0,1,0-.67c.25-.85.54-1.52.7-2.26.2-.47.57-.24.52.06l-.44,1.92c-.13.37-.11.62.22.63q.83,0,1-1.12L46.22,38C46.33,37.42,46.82,37.53,46.83,38Z"/><path class="cls-1" d="M45.94,38a16.53,16.53,0,0,1-.2,2.1c-.19.54-.6.35-.53,0A16.24,16.24,0,0,0,45.49,38C45.53,37.79,45.91,37.6,45.94,38Z"/><path class="cls-1" d="M44.39,38.76l-.62,2a1,1,0,0,1-1.45.51c-.5-.25-.47-.64-.25-1.07a12.64,12.64,0,0,0,.88-2c.09-.29.46-.28.38.13a10.56,10.56,0,0,1-.7,1.83c-.23.49.3.76.62.3a12.37,12.37,0,0,0,.81-2C44.15,38.27,44.46,38.33,44.39,38.76Z"/><path class="cls-1" d="M43.84,38.61a4.65,4.65,0,0,1-.64,1.72c-.21.3-.5.1-.38-.22a7.53,7.53,0,0,0,.61-1.63C43.42,38.27,43.81,38.12,43.84,38.61Z"/><path class="cls-1" d="M42.57,38.61a3.66,3.66,0,0,1-.76,1.49c-.29.15-.4-.09-.28-.3a9.3,9.3,0,0,0,.7-1.32C42.32,38.25,42.61,38.3,42.57,38.61Z"/><path class="cls-1" d="M41.29,39.9c-.09.15-.15.3,0,.39l.33.25c.18.21,0,.4-.25.42a1,1,0,0,1-.74-.46.52.52,0,0,1,.09-.62,12.39,12.39,0,0,0,.93-1.31c.16-.31.52-.14.31.32A5.13,5.13,0,0,1,41.29,39.9Z"/><path class="cls-1" d="M42.1,41.82c-.56.85-.67,1.9.3,3.94.24.59,0,1-.6,1.18S41,47,41,46.77a2.93,2.93,0,0,0-.21-1.07,15.3,15.3,0,0,1-.82-1.89,3.22,3.22,0,0,1,.55-2.63c.22-.36.85-.15.57.32a2.86,2.86,0,0,0-.49,1.87,12.24,12.24,0,0,0,.72,2.16c.17.42.42.19.33-.07A14.08,14.08,0,0,1,41,43.19a2.17,2.17,0,0,1,.54-1.71A.33.33,0,0,1,42.1,41.82Z"/><path class="cls-1" d="M42.41,41.81a3.85,3.85,0,0,0-.17,3,5.69,5.69,0,0,0,1.2,2.32,1.12,1.12,0,0,0,1.84-.58,2.08,2.08,0,0,0-.22-.94,5.85,5.85,0,0,1-.15-3.11c.14-.47-.53-.51-.65-.18a5.81,5.81,0,0,0,.12,3.51c.16.56-.35.86-.69.45-1.11-1.7-1.16-3-.66-4.1C43.2,41.63,42.67,41.37,42.41,41.81Z"/><path class="cls-1" d="M44,42.06c-.33.57-.41,1.5.06,3.24.16.49-.21.52-.35.31a4.51,4.51,0,0,1-.3-3.73C43.56,41.47,44.1,41.64,44,42.06Z"/><path class="cls-1" d="M47.6,41.87a13.2,13.2,0,0,0,.28,3.56,1.27,1.27,0,0,1-2.51.18,6.62,6.62,0,0,1-.12-3.35.32.32,0,0,1,.63,0,5.53,5.53,0,0,0,.29,3.07c.27.36.57.39.75.15s0-.64,0-.91A9.6,9.6,0,0,1,47,41.72C47,41.35,47.61,41.43,47.6,41.87Z"/><path class="cls-1" d="M46.62,41.91a13.15,13.15,0,0,0,.14,2.81c0,.47-.49.47-.6.14a9.8,9.8,0,0,1,0-2.92C46.23,41.61,46.61,41.63,46.62,41.91Z"/><path class="cls-1" d="M49.29,40.87a5.17,5.17,0,0,1,.81,3.42c-.47,1.14-1.23,1.37-1.74.81a7,7,0,0,1-.64-3.3.31.31,0,1,1,.62-.08,9,9,0,0,0,.31,2.38c.16.39.65.33.75-.16A6.27,6.27,0,0,0,49,41.49C48.85,41,49,40.55,49.29,40.87Z"/><path class="cls-1" d="M48.83,41.41c.07.59.17,1.22.33,2,0,.51-.41.28-.4.11a9.41,9.41,0,0,1-.33-2.11C48.43,41.11,48.72,41,48.83,41.41Z"/><path class="cls-1" d="M50.56,39.74a2.47,2.47,0,0,1,.4,2.67c-.17.24-.36.33-.58.18a3.91,3.91,0,0,1-.86-1.75c-.07-.2,0-.37.16-.47s.37-.19.54,0l.11.32c.07.16,0,.24-.14.24s-.05.63.22.65.25,0,.27-.14c0-.61-.41-.91-.42-1.55C50.29,39.63,50.39,39.57,50.56,39.74Z"/><path class="cls-1" d="M51.4,39.23c.45.17.68.92,1.09.95.14,0,.26.15.11.32l-.41.57c-.32.21-.51.13-.65-.08s-.13-.23,0-.35c.36-.4-.3-.77-.47-1.13S51.17,39.14,51.4,39.23Z"/><path class="cls-1" d="M52.7,37.7a1.67,1.67,0,0,0,1,.56c.23,0,.29.09.25.34-.17.59-.61.8-.93,1.29a.42.42,0,0,1-.61,0,4.86,4.86,0,0,1-.81-.82.27.27,0,0,1,.33-.41l.55.42c.2.15.52-.15.34-.43l-.52-.54C52.13,37.83,52.48,37.51,52.7,37.7Z"/><path class="cls-1" d="M53.36,36.85c.44.44.7-.23.36-.62l-.49-.41a.5.5,0,0,1-.13-.53c0-.16.08-.19.19-.1a5.34,5.34,0,0,0,.95.62c.09,0,.26.08.33.15a.38.38,0,0,1,.07.29,4.2,4.2,0,0,1-.29,1.34c-.38.66-.88.46-1.45-.13-.15-.19-.14-.41.11-.65S53.25,36.68,53.36,36.85Z"/><path class="cls-1" d="M58.28,63.66a1.86,1.86,0,0,0,2.23-.86c.78-1.24,1.56-2.43,2.52-2,.37.55.89.16.62-.43-.06-.46-.94.09-1-.75,0-.37.07-.37-.22-.25-.56.26-.53.58-.75,1s-.63.3-.83-.06-.14-.3-.32,0,.12.9-.28,1.64c-.48,1-1.05,1.33-1.7,1.17C58.18,63,58.06,63.55,58.28,63.66Z"/><path class="cls-1" d="M57.63,64c2.09.26,3.44,1.23,6.56-.56a.3.3,0,0,0,.19-.37c0-.32.13-.52.6-.63.31,0,.33,0,.27.18q-.31.76.54.61c.26,0,.19-.11.17.22s-.29.43-.86.48a.33.33,0,0,0-.3.13,2.57,2.57,0,0,1-1,.58c-.15.06-.17.06-.14.23s.19.29.31.31.14,0,0,.2c-.36.3-.81.19-1.31-.15a.24.24,0,0,0-.29-.06,7.16,7.16,0,0,1-2.66.12c-.18,0-.25,0-.29.08s0,.39.1.4.08.07-.13.15c-.4.11-.66-.14-.81-.65,0-.25-.22-.35-.47-.39l-.94-.27C56.94,64.47,57,64.12,57.63,64Z"/><path class="cls-1" d="M64.39,60.06c1-.95,2.42.42,1.77,1.52-.92.93-1.67,1-2.35.63C63.23,61.45,63.67,60.75,64.39,60.06Zm.24.49c.57-.56,1.26-.19,1,.49a1.19,1.19,0,0,1-1.34.55Q63.9,61.28,64.63,60.55Z"/><path class="cls-1" d="M66.86,60.57a2.71,2.71,0,0,1,.55-.2c.19-.06.33,0,.37.25a1,1,0,0,0,0,.39c0,.22-.07.32-.28.3a2.71,2.71,0,0,1-.69-.15A.32.32,0,0,1,66.86,60.57Z"/><path class="cls-1" d="M66.7,59.27c.18-.19.26-.16.39,0a4.07,4.07,0,0,0,.33.41.21.21,0,0,1,0,.31,1.48,1.48,0,0,1-.73.39c-.38,0-.43-.25-.38-.53A1.36,1.36,0,0,1,66.7,59.27Z"/><path class="cls-1" d="M65.61,59.11c0,.37.08.58.52.46a1.05,1.05,0,0,0,.48-.41c.11-.14,0-.25-.09-.35a1.64,1.64,0,0,1-.3-.23q-.29-.24-.43.07A1.29,1.29,0,0,0,65.61,59.11Z"/><path class="cls-1" d="M67.41,58.89c-.29.19.06.87.41.58a.6.6,0,0,1,.67-.26c.4,0,.54-.61.18-1s-.88-.19-.89.12A.52.52,0,0,1,67.41,58.89Z"/><path class="cls-1" d="M47.53,59.95l-.64-.48a.61.61,0,0,1-.25-.5c-.09-.6-.35-.79-.63-.87s-.2,0-.19.17l0,.43c-.06.16-.16.13-.3.13-1.73-.06-1.44-1.52-2.57-1.27-.28.06-.26,0,.13.31.15.14.21.36-.14.51a1.13,1.13,0,0,0-.44.11c-.5.28-.68-.42-1.48-.13-.12.08-.19.15,0,.19a.75.75,0,0,1,.37,1l-.61,2.21a1.56,1.56,0,0,0,.53,1.56c.73.22.95.48.43.79-.16,0-.16.07,0,.19a1,1,0,0,0,1.1-.26.76.76,0,0,1,.77-.17c1,.21,1.46.48.82.85-.16,0-.18.07.09.17,1,.17,1-.93,2.22-.53.29.11.44.25.24.47-.13.07-.16.13.06.17a1,1,0,0,0,1-.77c.16-.28.3-.35.72-.55a1.07,1.07,0,0,0,.27-.69c0-.27-.11-.38-.35-.24-1.89,1.21-4,.71-6.54-.15a.76.76,0,0,1-.49-.89l.5-1.8c.63-1.45,2.54-.93,5.13.66C47.69,60.79,47.76,60.19,47.53,59.95Z"/><path class="cls-1" d="M39.66,59.14c-.24-.22-.06-.58.29-.44a2.8,2.8,0,0,1,1.12,1c.15.27-.14.55-.36.38A4.24,4.24,0,0,0,39.66,59.14Z"/><path class="cls-1" d="M40.19,61.32c.44-.18.61.4.19.75a8,8,0,0,1-2.5.37.41.41,0,0,0-.35.09,1.11,1.11,0,0,1-1.22.23c-.11,0-.11-.08,0-.13.34-.24.26-.38,0-.49l-1.47-.59a.21.21,0,0,0-.29.06,1.06,1.06,0,0,1-1.13,0q-.27-.16,0-.2c.39-.08.37-.46.33-1a4.34,4.34,0,0,1,1.12-2.87.43.43,0,0,0,0-.71c-.11,0-.1-.06,0-.1.63-.25.87.73,1.68.56.08-.06.15-.09.19.13,0,.4-.36.53-1,.47a.28.28,0,0,0-.25.17,5.24,5.24,0,0,0-.79,1.81c-.06.43,0,.71.26.78A5.86,5.86,0,0,0,40.19,61.32Z"/><path class="cls-1" d="M37.3,57.15c.57-.68,2.36-.39,2.06,1.37q-.44,1.62-1.65,1.29A2.07,2.07,0,0,1,37.3,57.15Zm.36.46c.32-.46,1.14-.23.9.73-.17.74-.48.91-.89.63A1.53,1.53,0,0,1,37.66,57.61Z"/><path class="cls-1" d="M39.36,56.14c.12-.21.26-.27.42-.19l.37.24a.33.33,0,0,1,.14.46,1.19,1.19,0,0,1-.63.39.36.36,0,0,1-.45-.29A.88.88,0,0,1,39.36,56.14Z"/><path class="cls-1" d="M38.24,55.79c0-.3.1-.37.32-.33l.45.14q.41.09.19.5a2.62,2.62,0,0,1-.27.36c-.28.21-.49.19-.64-.06Z"/><path class="cls-1" d="M37.1,56.13c-.12-.43,0-.48.18-.51a2.61,2.61,0,0,0,.44-.07c.22-.1.34,0,.34.32,0,.1,0,.18,0,.25a.67.67,0,0,1-.06.33C37.72,57,37.24,56.49,37.1,56.13Z"/><path class="cls-1" d="M33.31,59.34a5.44,5.44,0,0,1-4.16-2.42.92.92,0,0,1,0-1,3.47,3.47,0,0,1,1.35-1.21.87.87,0,0,1,1,0,7,7,0,0,1,2.14,3c.08.54.57.5.63,0l-.16-.63a.56.56,0,0,1,0-.44c.44-.65.4-1.11,0-1.44-.13-.13-.18-.21-.2,0-.19.64-.43.65-.69.23A5.59,5.59,0,0,0,31.81,54c-.21-.11-.27-.22-.24-.34-.16-.78-.46-.78-.76-.83s-.23,0-.14.16c.16.44,0,.74-.54.93a3.69,3.69,0,0,0-2,2c-.1.33-.33.35-.67.12-.16-.2-.21-.12-.17.17a.93.93,0,0,0,.72.89.32.32,0,0,1,.35.24,2.71,2.71,0,0,0,.58.7c.31.23.12.35-.3.41-.2,0-.2,0,0,.2a1.15,1.15,0,0,0,1,.28A.38.38,0,0,1,30,59l.65.35q.43.2-.07.5c-.17.06-.21.12,0,.2a.81.81,0,0,0,1.14-.2.25.25,0,0,1,.32-.1,2.59,2.59,0,0,0,1.41.05C33.69,59.73,33.67,59.34,33.31,59.34Z"/><path class="cls-1" d="M27.1,52.19c.43-.85,1.4-1.07,2.23,0s.48,2.35-.58,2.27A1.93,1.93,0,0,1,27.1,52.19Zm.53.48c0-.6.73-.85,1.09,0s.24,1.12-.21,1.1A1.39,1.39,0,0,1,27.63,52.67Z"/><path class="cls-1" d="M27.69,50.54c0-.24,0-.39.16-.45a1.07,1.07,0,0,1,.67,0,.32.32,0,0,1,.24.36,1.67,1.67,0,0,1-.13.6C28.21,51.62,27.8,51.2,27.69,50.54Z"/><path class="cls-1" d="M26.63,51c-.48-.52,1-1.07,1-.41C27.9,51.64,27.22,51.87,26.63,51Z"/><path class="cls-1" d="M25.86,51.8c.79.66,1.66.18.66-.74C26.23,50.64,25.5,51.61,25.86,51.8Z"/><path class="cls-1" d="M26.33,50a.29.29,0,0,0-.26-.3c-1.56-.81,1-1.94.84-.47-.07.15-.07.26,0,.34C27.35,50.11,26.58,50.59,26.33,50Z"/><path class="cls-1" d="M40.44,63.17A1,1,0,1,1,39,64.65C38,63.3,39.65,62.31,40.44,63.17Zm-1,.42c-.36.55.24.92.57.6S39.76,63.25,39.42,63.59Z"/><path class="cls-1" d="M36,66.88a1,1,0,1,1-1.47,1.48C33.57,67,35.25,66,36,66.88Zm-1,.42c-.36.55.24.92.57.6S35.36,67,35,67.31Z"/><path class="cls-1" d="M59.95,68.87a1,1,0,1,1-1.47,1.49C57.48,69,59.16,68,59.95,68.87Zm-1,.42c-.36.55.24.92.57.61S59.27,69,58.93,69.29Z"/><path class="cls-1" d="M42.59,66.61c.27.17.26.44-.06.47a3.15,3.15,0,0,1-2.19-1.66c-.17-.38.22-.79.53-.35A4.39,4.39,0,0,0,42.59,66.61Z"/><path class="cls-1" d="M40.93,70.22a6.55,6.55,0,0,1,1.67.11c.14.06.19.07.25.24V71c0,.16-.05.26-.25.2a5.71,5.71,0,0,0-1.65-.46A.26.26,0,0,1,40.93,70.22Z"/><path class="cls-1" d="M37.57,70.4c2.85-2.65,4.4,1.8.5.94q-.34-.16,0-.33a4.36,4.36,0,0,1,1-.51.45.45,0,0,1,.5.05c.24.16.53-.38,0-.4a1.71,1.71,0,0,0-1.15.49C37.77,71,37.29,70.83,37.57,70.4Z"/><path class="cls-1" d="M31.76,62.7c3.93-.35,2.48,4-.17,1-.12-.22-.06-.31.18-.28a4.44,4.44,0,0,1,1.1.19c.24.08.34.17.38.34s.66,0,.22-.33a1.8,1.8,0,0,0-1.23-.3C31.58,63.26,31.27,62.87,31.76,62.7Z"/><path class="cls-1" d="M62.4,66.15c-3.65-1.32-3.28,3.37-.08,1.06q.24-.28-.11-.32a4.32,4.32,0,0,0-1.09-.09c-.24,0-.37.08-.44.24s-.63-.15-.14-.38a1.69,1.69,0,0,1,1.24,0C62.45,66.75,62.83,66.44,62.4,66.15Z"/><path class="cls-1" d="M55.78,67.05A9.19,9.19,0,0,0,59,66.6c.36-.22.79.18.38.46a6.37,6.37,0,0,1-3.44.61C55.27,67.62,55.36,67.1,55.78,67.05Z"/><path class="cls-1" d="M58,69c.31.32-.1.58-.45.46-1.5-.87-.43-1.55,1.67-2.08.44-.11.59.4.29.51l-1.53.6c-.21.08-.31.17-.17.28Z"/><path class="cls-1" d="M55.89,70.2l1.64-.49c.33-.1.65.44.29.64l-1.54.47C55.76,71,55.57,70.36,55.89,70.2Z"/><path class="cls-1" d="M37,67.28c3.26.17,5.33,1.24,4.06,2.63-.45.15-.58,0-.61-.26s.6-.39,0-.8a9.49,9.49,0,0,0-3.5-1C36.49,67.78,36.52,67.32,37,67.28Z"/><path class="cls-1" d="M34.67,64.61c3.42,1.33,2.69,2.75,1.64,2.2-.1-.05-.11-.15,0-.3s.08-.2,0-.29a10.9,10.9,0,0,0-1.77-1.16C34.22,64.87,34.31,64.51,34.67,64.61Z"/><path class="cls-1" d="M34.65,64.16a18.12,18.12,0,0,0,2.7,1.36,9.27,9.27,0,0,0,1.94.65c.89,0,.94-.7.45-.94s-.1.37-.78.21A28.67,28.67,0,0,1,35,63.78C34.62,63.6,34.4,63.94,34.65,64.16Z"/><path class="cls-1" d="M47.81,73.76a.44.44,0,0,1,.86,0,5.72,5.72,0,0,1,.09,1.68.47.47,0,0,1-.88.1A3.26,3.26,0,0,1,47.81,73.76Z"/><path class="cls-1" d="M49.46,74c-.1-.88.91-.86,1-.11l.05,1.34c.08.64-.9.66-.94.18Z"/><path class="cls-1" d="M44.63,76.76c-.36-.06-.46-.59-.09-.7s.82.05.66.55c-.11.15-.32.18-.57.15"/><path class="cls-1" d="M53.58,77c-.36.21-.73,0-.63-.39a.5.5,0,0,1,.58-.35c.42.11.41.54,0,.75"/><path class="cls-1" d="M45.14,75.62a3.43,3.43,0,0,1,2-.88c.36-.07.52.59.08.76a2.3,2.3,0,0,0-1.13.45.46.46,0,0,1-.53.17l-.4-.27C45,75.8,45.07,75.71,45.14,75.62Z"/><path class="cls-1" d="M50.93,74.83a4,4,0,0,1,2.09.94c.1.09.12.19,0,.27l-.39.27c-.16.1-.21,0-.31-.07A3.09,3.09,0,0,0,51,75.57c-.1,0-.17-.07-.19-.22C50.75,75,50.76,74.79,50.93,74.83Z"/><path class="cls-1" d="M44.94,78.34c0-1.14,1.39-1.66,2.4-2.42.17-.12.33-.18.45-.07l.42.24c.13.08.2.18,0,.33-.69.61-1.66.82-2.11,1.67"/><path class="cls-1" d="M47,78.08c.61-.64,1.51-1,2.14-1.67a.58.58,0,0,1,.54-.27c.68-.07.85-.07.5.53-.82,1.12-2,1.29-2.46,2.18"/><path class="cls-1" d="M50.58,77.18c-.39-.2-.23-.48,0-.78s.27-.16.42-.07c.71.5,1.91.61,2.8,1.83"/><path class="cls-1" d="M41.73,77.28c1.19-.1,1.75-1.63,2.21-1.68.22-.14.48,0,.83-.29.75-.53,1.44-.92,1.87-.81.92.06,1.16-.63.61-.82a4.14,4.14,0,0,0-2.19.36.75.75,0,0,1-.91-.13c-.66-.57-1.14-.83-1.27-.37-.18.28-.37.38-.61.07l-.66-1c-.14-.38-.55-.48-1.13-.38-.33.05-.45.23-.36.52l.25.48c.22.37,0,.47-.27.17-.73-.82-1.33-1.18-2-1.14-.28,0-.37.15-.27.42l.18.47c.11.28,0,.23-.19.14-.67-.5-1.32-.81-1.9-.44-.16.1-.27.22-.08.44s.13.25-.07.33l-1.2.45c-.37.23-.57.48-.18.79a5.13,5.13,0,0,0,2.62,0c.23,0,.34.08.22.27a1.47,1.47,0,0,1-.49.5q-.21.12,0,.34a1,1,0,0,0,1.1.18l1.18-.56c.21-.09.28,0,.21.19l-.47.61c-.16.26-.14.48.27.61"/><path class="cls-1" d="M39.1,77a2.34,2.34,0,0,0,2.12-.84c.33-.32.57-.23.52,0l-.36.63"/><path class="cls-1" d="M42.56,75.75c-.24.47.4.42.59-.32,0-.21.22-.33.54-.39s.1-.77-.08-.53a1,1,0,0,1-.53.28,1,1,0,0,1-1.13-.41l-.59-.87c-.18-.25-.3-.12-.16.15l.29.51c.13.23.06.35-.21.39a2.47,2.47,0,0,1-2.14-1.18c-.21-.27-.37-.13-.19.09l.3.4c.15.18.14.3-.09.33a3.33,3.33,0,0,1-2.09-.79c-.23-.12-.3-.09-.21.08l.11.24c.1.21,0,.27-.2.28l-1.08.1c-.28,0-.31.2.17.19a7.48,7.48,0,0,1,2.53.17c.14,0,.25.08.14.3l-.39.42c-.18.16-.15.31.12.21a2.54,2.54,0,0,1,1.93-.56.32.32,0,0,1,.25.49l-.19.47c0,.21-.05.36.22.13.44-.52.88-.92,1.35-.9C42.51,75.06,42.82,75.27,42.56,75.75Z"/><path class="cls-1" d="M35.47,72.3a4.21,4.21,0,0,1-1.88-2.82c-.14-.38-.34-.34-.43-.08s-.45.38-.47,0c0-1.41-.2-2.1-.68-2.5s-.67-.25-.76.16l-.11.71c0,.44-.39.26-.37,0,0-1.23-.13-2.26-.61-2.52q-.41-.28-.5.11c-.09.66-.15.71-.57.26q-.86-1.09-.84-.12c.08,1,.23,1.17-.74,1.11-.43,0-.62.3-.27.58l1.16.63c.21.13.35.24,0,.27L27.3,68c-.32,0-.41.14-.27.39.33.65,1.25,1.1,2.75,1.35.25.06.27.27,0,.26l-1.45.16c-.29,0-.27.18-.21.36.46.68,1.2,1.11,2.72.89.19,0,.4-.1.43.21s0,.46.26.48a3.79,3.79,0,0,1,3.57.62C35.55,73,35.79,72.55,35.47,72.3Zm-2.25-1c.28,0,.2-.08.11-.22-.34-.63-.45-.21-.86-.42s-.67-1-.68-2c0-.29-.14-.39-.17,0l-.06.55c0,.27-.12.35-.38.24A2.35,2.35,0,0,1,30.1,68c0-.24-.13-.37-.27-.42a2,2,0,0,1-.74-1c-.08-.22-.24-.23-.2,0a.37.37,0,0,1-.13.37c-.2.09-.24.17,0,.22s.79.52,1.16,1.33c.09.16.06.25-.09.26h-1c-.45-.06-.25.2,0,.23l1.16.18a1.09,1.09,0,0,1,1,.61c.18.25.17.42,0,.49a9.2,9.2,0,0,1-1.27.3q-.47.06.08.25c.66.24,1.93-.49,2.32.06.08.14,0,.47.24.46Z"/><path class="cls-1" d="M34.6,69.63c.37-.34,1-.27,1,.26a.72.72,0,0,1-.69.36A.37.37,0,0,1,34.6,69.63Z"/><path class="cls-1" d="M32,72.78c.4-.19.69-.07.82.49,0,.35-.23.44-.62.42A.54.54,0,0,1,32,72.78Z"/><path class="cls-1" d="M34.79,70.51a2,2,0,0,0,.74-.15c.54-.23.84.31.54.59a.47.47,0,0,0-.16.56c.51,1,0,1.08-.51.31a1.12,1.12,0,0,0-.65-.53C34.35,71.15,34.33,70.55,34.79,70.51Z"/><path class="cls-1" d="M32.86,73c-.33-.5,0-.94.56-.64a1,1,0,0,0,.74.27,1,1,0,0,1,.69.17c.18.16.17.3,0,.3-.46,0-.86.09-1,.49s-.68.48-.81.08A1.61,1.61,0,0,0,32.86,73Z"/><path class="cls-1" d="M27.79,65.83A2.67,2.67,0,0,1,26.54,62c.27-.84-.17-1.39-.62-.76-.24.26-.49.1-.4-.27.35-1.43.26-2.34-.49-2.49-.54-.15-.74.29-.78,1-.11.46-.49.55-.44.11.22-.82.19-1.35-.16-1.55s-.54,0-.61.46-.44.23-.58-.12-.42-.32-.61-.18a.63.63,0,0,1-.69.22c-.44,0-.47.22-.3.5.38.36.31.65-.16.43s-.67.27-.44.62a2.85,2.85,0,0,0,1.21.78c.31.12.39.24,0,.22-.65-.06-.64.16-.52.42.14.67,1,1,2.24,1.26.32.09.36.32.1.29h-.46c-.27,0-.32.12-.16.34a3,3,0,0,0,1.91.89,1.66,1.66,0,0,1,1.16.83,6.37,6.37,0,0,0,1.8,1.29C28,66.48,28.13,66.13,27.79,65.83Zm-2.37-2.21c.13.15,0,.28-.14.12a1.4,1.4,0,0,0-1-.22c-.15,0-.2-.16,0-.14,1.14-.21,0-1.31-1.38-1.42-.32,0-.21-.28,0-.19,1.92.58.89-1.28-.76-1.46-.26,0-.22-.22,0-.16,1.12.26.51-.22,0-.66-.21-.2,0-.42.18-.25.49.49.61.56.85,0,.05-.17.2-.14.15.09a1.25,1.25,0,0,0,.17,1.21c1,1.39.9.47,1.36-.71.09-.23.21-.2.15.05-.13.48-.26,1-.37,1.43-.2.8.14,1.38.81,1.15.18-.09.24,0,.13.18C25.29,63,25.16,63.33,25.42,63.62Z"/><path class="cls-1" d="M27,63.2a2.94,2.94,0,0,0,1,.23c.35,0,.56.5.24.67s-.61.24-.55.83-.43.6-.5.29a2.49,2.49,0,0,0-.47-1.33C26.41,63.51,26.53,63.11,27,63.2Z"/><path class="cls-1" d="M27.37,62.24c.48-.11.81,0,.81.53-.06.26-.31.33-.65.3C27,63,27,62.43,27.37,62.24Z"/><path class="cls-1" d="M23.84,65.31a.44.44,0,0,1,.82.15q.19.6-.36.71C23.79,66.21,23.66,65.57,23.84,65.31Z"/><path class="cls-1" d="M24.83,65.45a.42.42,0,0,1,.8-.25,1.13,1.13,0,0,0,.62.58c.78.39.83.77.24.7-.47-.22-.73-.19-.85,0-.29.44-1,.27-.87-.16A2.57,2.57,0,0,0,24.83,65.45Z"/><path class="cls-1" d="M22,57.3c-.52-1.09-.64-1.84-.28-2.15a.42.42,0,0,0-.05-.57c-.16-.16-.09-.26.09-.32s.36-.27.57-.6c.77-.75.24-1.47-.64-.82-.33.21-.5-.18-.19-.29.88-.42,1.48-.9,1.33-1.58q-.09-.5-.44-.24-.95.52-.56-.11a1.29,1.29,0,0,0,.37-1.4c-.11-.28-.28-.4-.59-.18s-.65.51-1,.25c-.59-.24-.87.32-.87,1.49,0,.49-.2.39-.59-.12-.12-.18-.32-.09-.6.26a.79.79,0,0,0,0,1l.44.66c.17.35,0,.42-.15.37q-1.13-.56-.72.53a1.42,1.42,0,0,0,1.08.85.6.6,0,0,1,.45.63c0,.25.18.48.69.68.32.11.63.36,1,1.52a1.07,1.07,0,0,0,.57.71C22.14,58,22.39,57.7,22,57.3Zm-1.59-2.13c.61.5.81,0,.33-.34-.37-.11-.29-.32,0-.57q.73-.8.2-.54c-.46.12-.57-.07-.64-.5s.06-.63.32-.79c.62-.37.67-.49.19-.46-.23.08-.37,0-.33-.26A1.57,1.57,0,0,1,21,50.63c.13-.17.21-.32-.12-.3s-.75.22-.65.77l-.06.86q-.07.5-.41.24-.68-.55-.38,0c.6.82,1,1.52.43,1.7-.23,0-.26.1-.12.23s.87.2.68.75Z"/><path class="cls-1" d="M23.33,54.37c.51,0,.75.23.59.7a.66.66,0,0,1-.81.07A.41.41,0,0,1,23.33,54.37Z"/><path class="cls-1" d="M18.76,55.47c.45-.13.69.15.59.69a.5.5,0,0,1-.75.23A.56.56,0,0,1,18.76,55.47Z"/><path class="cls-1" d="M19.62,55.85a.45.45,0,0,1,.85.19l.14.38.54.64c.22.29.08.61-.21.41s-.78-.58-1-.31c-.45.21-.8,0-.68-.43A5.53,5.53,0,0,0,19.62,55.85Z"/><path class="cls-1" d="M22.66,55.11a7.79,7.79,0,0,0,.85.43c.41.09.59.7-.05.78-.31,0-.5.27-.61.73s-.3.3-.43,0c-.18-.46.1-1-.15-1.32S22.33,54.95,22.66,55.11Z"/><path class="cls-1" d="M62,70.51c-1-1.29,1.75-1.78,1.18-.09a.41.41,0,0,0-.11.51c.28.73-1,.78-.81.09C62.35,70.82,62.23,70.66,62,70.51Z"/><path class="cls-1" d="M69.08,64.57c-1.52-.6.68-2.42,1-.67a.41.41,0,0,0,.15.51c.59.5-.47,1.16-.67.48C69.51,64.67,69.33,64.59,69.08,64.57Z"/><path class="cls-1" d="M72.77,56.25c-1.57-.28.08-2.51.77-.91.06.19.07.38.28.45.71.32-.08,1.31-.51.65C73.21,56.23,73,56.2,72.77,56.25Z"/><path class="cls-1" d="M64.57,72.88c1.66-.05.3,2.45-.66,1a.4.4,0,0,0-.33-.4c-.75-.22,0-1.23.44-.7C64.13,73,64.33,73,64.57,72.88Z"/><path class="cls-1" d="M72.25,65.44c1.35-.75,1.47,2-.08,1.17a.4.4,0,0,0-.48-.18c-.75.17-.7-.95,0-.81C71.9,65.72,72.08,65.63,72.25,65.44Z"/><path class="cls-1" d="M76.13,56.13c1.19-1.14,1.8,1.65.25,1.17a.51.51,0,0,0-.59-.05c-.82.24-.83-.94-.14-.82C75.85,56.49,76,56.35,76.13,56.13Z"/><path class="cls-1" d="M51,73.71a14.55,14.55,0,0,1,3,.93,1.35,1.35,0,0,0,1.22-.12c2.29-1,4.22-1.83,6.4-1.8.41,0,.51.27-.22.34a2.68,2.68,0,0,0-1.24.3c-1.61.71-2.86,1.57-3.75,1.51-1.08.13-1.11.5-.59.54a5.07,5.07,0,0,0,2.6-.63A9.29,9.29,0,0,1,62,73.22c.35,0,.5-.09.21.35a9.49,9.49,0,0,1-3.7,2c-1.32.42-2.05.94-3,.66a8,8,0,0,1-2-1A6.38,6.38,0,0,0,51,74.5C50.46,74.42,50.58,73.64,51,73.71Z"/><path class="cls-1" d="M58.22,77.4c-1.7.18-2.48-.25-2.85-.94,2,.66,4.8-1.51,6.14-1.58.49,0,.61.21.33.36l-3.37,1.31c-.36.13-.31.3-.06.28"/><path class="cls-1" d="M58.41,76.82c1.88-.43,3-1.6,4.2-1.52.24,0,.35.16,0,.33a23.07,23.07,0,0,1-4.39,1.76"/><path class="cls-1" d="M53.86,74.16c1.14-.15,1.79-1.16,3-1.92.34-.25.72-.12,1.29-.41a2.11,2.11,0,0,1,2.1-.29c.25.18.33.3,0,.28a2.48,2.48,0,0,0-1.73.56l-1.3.35c-.62.18-.85.51-.37.41l.64-.15c.5-.09.82-.52,1.49-.58a9.82,9.82,0,0,0,1.4-.4c.33-.12.47.48.1.56a19.11,19.11,0,0,0-2,.47,24.56,24.56,0,0,0-3.24,1.39A1.13,1.13,0,0,1,53.86,74.16Z"/><path class="cls-1" d="M62.61,72c.12-.51,1.72-1,3-2.69.73-1.09,2.23-2.07,3.87-3.47.34-.37.35-.2.31,0a3.75,3.75,0,0,1-1.7,2,9.69,9.69,0,0,0-2.65,2.48q-.32.57.46,0a8.06,8.06,0,0,1,2.22-2,4.88,4.88,0,0,0,1.76-2c.15-.34.24-.26.25.31a2.88,2.88,0,0,1-1.31,2.23,11.36,11.36,0,0,1-3.21,2.36,3.32,3.32,0,0,0-2.26,1.14C63,72.92,62.2,72.43,62.61,72Z"/><path class="cls-1" d="M65.23,71.56A8.82,8.82,0,0,0,70,68c.24-.25.61-.25.56.09A8,8,0,0,1,67.8,70.9c-.33.21-.27.46,0,.33a10.67,10.67,0,0,0,3.08-3.09c.15-.23.27-.13.3.07.12.42-.2.93-.81,1.52a9.68,9.68,0,0,1-2.19,1.94,14.17,14.17,0,0,1-2.94.27C65,72,64.88,71.68,65.23,71.56Z"/><path class="cls-1" d="M63.94,70.19a6.46,6.46,0,0,0,.22-1.37,2.37,2.37,0,0,1,.93-1.48,19.23,19.23,0,0,0,2.24-2.18c.11-.14.21-.16.24.17,0,.58-.79,1-1.78,2.13L65,68.4c-.2.39.08.37.39,0A9.76,9.76,0,0,1,67,66.52c.33-.29.41-.17.34.21a2,2,0,0,1-.86,1.13,6.16,6.16,0,0,0-1.44,1.72,2.21,2.21,0,0,1-1,.94C63.91,70.53,63.88,70.39,63.94,70.19Z"/><path class="cls-1" d="M70.35,65.5a5.16,5.16,0,0,0,1.12-2.81,17.35,17.35,0,0,1,2.17-4.64q.45-.46.3.15c-.52,1.74-1.41,3.26-1.88,4.67-.08.33,0,.4.24.19,1-1.38,1.34-3.81,2.15-5.42.33-.55.4-.27.42.13a11.28,11.28,0,0,1-1.55,5.05c-.43.62-1.11.87-1.35,1.43a5.56,5.56,0,0,1-1.11,1.6C70.42,66.29,70.17,65.75,70.35,65.5Z"/><path class="cls-1" d="M70.69,63.55C69.22,61.42,71,59,71.79,58c.32-.31.51-.16.41.1a2.27,2.27,0,0,0-.55,1.28,5.15,5.15,0,0,1-.77,1.67c-.3.68-.11.86.09.55.71-1.23,1-2.92,1.51-3.56.28-.34.51-.11.49.2a14.22,14.22,0,0,1-1.3,3,3.08,3.08,0,0,0-.47,1.47C71.11,63.42,71.05,63.93,70.69,63.55Z"/><path class="cls-1" d="M72.52,64.08a6.62,6.62,0,0,0,1.82-2.54,2.87,2.87,0,0,1,1.32-2.3c.54-.27.51-.13.2.3-.83,1-.85,2.39-1.67,3.39-.21.32-.17.4.12.24.61-.43.93-2.81,1.89-3.85.32-.24.47-.24.26.26-.55,1.28-.75,2.73-1.62,3.9a2.6,2.6,0,0,1-.77.49c-.35.14-.69.2-1,.36C72.51,64.54,72.27,64.52,72.52,64.08Z"/><path class="cls-1" d="M73.9,54.67c-1.06-.82-1.53-2.19-1-4.69.13-.39,0-.38.25-.2.83.95-.37,1.19.42,3.58.12.25.34.18.23,0a3.09,3.09,0,0,1-.19-1.89,1.43,1.43,0,0,0,0-.55q-.12-.38.25-.17c.2.22.34.59.24,1.49a3,3,0,0,0,.11,1.41,1.38,1.38,0,0,1,.1,1C74.22,54.88,74.07,54.84,73.9,54.67Z"/><path class="cls-1" d="M74.12,56.78a30.28,30.28,0,0,0,.36-3.2c-.1-1.91,0-3.43.61-4.09.21-.21.38-.24.45.14a2.44,2.44,0,0,1-.3,1.71,5.59,5.59,0,0,0-.19,2.28c0,.29.38.4.39-.07a4.62,4.62,0,0,1,.19-2.31,2.21,2.21,0,0,0,.15-1.56c0-.31.06-.3.25-.13s.36.37.4,1.21a7.88,7.88,0,0,1-.33,2.73,22.8,22.8,0,0,0-1.23,2.28,1.58,1.58,0,0,0-.1,1A.33.33,0,1,1,74.12,56.78Z"/><path class="cls-1" d="M75.31,55.48l1.09-1.84a7.17,7.17,0,0,0,.31-3c0-.3,0-.39.23-.27a.64.64,0,0,1,.28.79L77,52.68l-.17,1c0,.32.24.3.23,0a2.68,2.68,0,0,1,.28-1.35,3.67,3.67,0,0,0-.06-2c-.05-.27,0-.27.26,0a1.52,1.52,0,0,1,.4,1.44,1.81,1.81,0,0,0-.09.94,1.83,1.83,0,0,1-.37,1.34l-1.56,1.52C75.21,56.09,75.17,55.88,75.31,55.48Z"/><path d="M21,30.87l1.23-1.51A1.33,1.33,0,0,1,23,28.8a1.13,1.13,0,0,1,.87.3,1.17,1.17,0,0,1,.48.83A1.5,1.5,0,0,1,24,31l-.4.5,1.09.89-.74.91Zm2,.1.18-.22a.74.74,0,0,0,.21-.44.38.38,0,0,0-.15-.3.42.42,0,0,0-.31-.1.62.62,0,0,0-.38.27l-.21.26Z"/><path d="M25.31,28.58a1.79,1.79,0,0,1,.11-2.77,2,2,0,0,1,1.42-.62,1.92,1.92,0,0,1,1.34.7,2.33,2.33,0,0,1,.58,1,1.59,1.59,0,0,1,0,.92,2.14,2.14,0,0,1-.61.89,2.43,2.43,0,0,1-.92.57,1.6,1.6,0,0,1-.94,0A2.15,2.15,0,0,1,25.31,28.58Zm.86-.79a1.27,1.27,0,0,0,.72.46.81.81,0,0,0,.86-.79,1.4,1.4,0,0,0-.45-.79,1.17,1.17,0,0,0-.69-.43.74.74,0,0,0-.6.22.71.71,0,0,0-.25.57A1.27,1.27,0,0,0,26.17,27.79Z"/><path d="M28.36,23.41l1.46-1a2.08,2.08,0,0,1,.77-.34,1.35,1.35,0,0,1,.66,0,1.66,1.66,0,0,1,.58.34,2.82,2.82,0,0,1,.48.56,2.55,2.55,0,0,1,.4.86,1.56,1.56,0,0,1,0,.68,1.25,1.25,0,0,1-.28.54,2.71,2.71,0,0,1-.53.47l-1.46,1Zm1.45.08,1.13,1.73.24-.16a1.21,1.21,0,0,0,.39-.35.55.55,0,0,0,0-.37,1.79,1.79,0,0,0-.29-.6,1.28,1.28,0,0,0-.62-.58.83.83,0,0,0-.67.17Z"/><path d="M32.84,20.68,35.7,19.4l.33.74-1.79.8.25.55,1.66-.75.32.71-1.66.75.31.68L37,22l.35.78-2.92,1.31Z"/><path d="M38.44,22.43l-1-3.66,1.88-.51a2.83,2.83,0,0,1,.83-.13.88.88,0,0,1,.54.21,1.07,1.07,0,0,1,.08,1.56,1.41,1.41,0,0,1-.36.25,1.17,1.17,0,0,1,.33.05,1.18,1.18,0,0,1,.23.14,1.48,1.48,0,0,1,.22.18l.84.91-1.28.35-.91-1a.89.89,0,0,0-.28-.23.49.49,0,0,0-.3,0l-.1,0,.4,1.48ZM39,19.94l.48-.13.29-.13a.31.31,0,0,0,.15-.16.38.38,0,0,0-.17-.47.7.7,0,0,0-.45,0l-.5.14Z"/><path d="M46.78,17.19l1.17,0L48,19.21a3.25,3.25,0,0,1-.08,1,1.13,1.13,0,0,1-.44.59,1.56,1.56,0,0,1-.88.26,2.06,2.06,0,0,1-.89-.13,1.12,1.12,0,0,1-.5-.44,1.71,1.71,0,0,1-.23-.73l1.11-.19a1.28,1.28,0,0,0,.06.37.41.41,0,0,0,.15.19.32.32,0,0,0,.19,0,.32.32,0,0,0,.28-.16,1,1,0,0,0,.08-.5Z"/><path d="M52.33,17.5l1.16.14-.28,2.24a1.9,1.9,0,0,1-.18.62,1.37,1.37,0,0,1-.39.48,1.31,1.31,0,0,1-.5.25,2.36,2.36,0,0,1-.83,0,5.13,5.13,0,0,1-.59-.11,1.58,1.58,0,0,1-.52-.22,1.37,1.37,0,0,1-.36-.37,1.2,1.2,0,0,1-.19-.46,2.26,2.26,0,0,1,0-.65l.28-2.24,1.16.14-.28,2.3a.66.66,0,0,0,.11.5.74.74,0,0,0,.94.12A.66.66,0,0,0,52,19.8Z"/><path d="M55.41,18.06l1.67.5a2.09,2.09,0,0,1,.76.37,1.35,1.35,0,0,1,.39.53,1.66,1.66,0,0,1,.11.67,2.82,2.82,0,0,1-.12.73,2.55,2.55,0,0,1-.4.86,1.56,1.56,0,0,1-.53.43,1.25,1.25,0,0,1-.59.14,2.71,2.71,0,0,1-.7-.1l-1.67-.5Zm.88,1.16-.59,2,.28.08a1.2,1.2,0,0,0,.52.07.55.55,0,0,0,.31-.2,1.79,1.79,0,0,0,.27-.61,1.28,1.28,0,0,0,0-.85.83.83,0,0,0-.56-.4Z"/><path d="M60.35,19.72l1.07.47-1.53,3.47-1.07-.47Z"/><path d="M64.14,24.24l.72.8a1.9,1.9,0,0,1-.65.45,1.41,1.41,0,0,1-.7.09,2.07,2.07,0,0,1-.79-.31,2.44,2.44,0,0,1-.77-.68,1.6,1.6,0,0,1-.25-.89A2.14,2.14,0,0,1,62,22.56a2,2,0,0,1,1.18-1,2.28,2.28,0,0,1,2.29,1.13,1.7,1.7,0,0,1,.06,1.08l-1-.34a.88.88,0,0,0,0-.28.68.68,0,0,0-.1-.3.74.74,0,0,0-.92-.27,1.36,1.36,0,0,0-.52.56,1.42,1.42,0,0,0-.28.84.75.75,0,0,0,.87.58A1.17,1.17,0,0,0,64.14,24.24Z"/><path d="M67.53,23.88l.91.74-2.39,2.95-.91-.74Z"/><path d="M69.26,29.69l-.93-.95-.58.31-.84-.85,3.7-1.64.9.91L69.8,31.14l-.86-.88Zm.41-.75.68-1.25-1.26.66Z"/><path d="M73.43,29.67l.69,1L71.8,32.29l1.07,1.48-.76.55-1.75-2.43Z"/>
</symbol>
<symbol id="icon-alpez-travel" viewBox="0 0 96 96">
<title>alpez-travel</title>
<path d="M18,27.27h5.48V49.19H18V46.87a10.75,10.75,0,0,1-3.23,2.2,9.07,9.07,0,0,1-3.51.67,9.76,9.76,0,0,1-7.35-3.29,11.47,11.47,0,0,1-3.1-8.18,11.75,11.75,0,0,1,3-8.31,9.56,9.56,0,0,1,7.29-3.24,9.37,9.37,0,0,1,3.7.74A10.13,10.13,0,0,1,18,29.67Zm-5.78,4.48a5.56,5.56,0,0,0-4.24,1.81,6.51,6.51,0,0,0-1.69,4.63A6.58,6.58,0,0,0,8,42.87a5.57,5.57,0,0,0,4.23,1.84,5.66,5.66,0,0,0,4.3-1.81,6.6,6.6,0,0,0,1.71-4.73,6.41,6.41,0,0,0-1.71-4.64A5.74,5.74,0,0,0,12.19,31.75Z"/><path d="M25.32,18.8H30.8V49.19H25.32Z"/><path d="M38.19,27.27v2.4a10.34,10.34,0,0,1,3.22-2.21,9.34,9.34,0,0,1,3.7-.74A9.55,9.55,0,0,1,52.38,30a11.76,11.76,0,0,1,3,8.31,11.47,11.47,0,0,1-3.1,8.18,9.74,9.74,0,0,1-7.34,3.29,9.1,9.1,0,0,1-3.52-.67,10.74,10.74,0,0,1-3.24-2.2V57.21H32.71V27.27Zm5.76,4.48a5.72,5.72,0,0,0-4.3,1.78,6.41,6.41,0,0,0-1.71,4.64,6.6,6.6,0,0,0,1.71,4.73,5.67,5.67,0,0,0,4.3,1.81,5.57,5.57,0,0,0,4.23-1.84,6.58,6.58,0,0,0,1.72-4.68,6.51,6.51,0,0,0-1.69-4.63A5.58,5.58,0,0,0,43.95,31.75Z"/><path d="M78.75,39.77H61.08a5.94,5.94,0,0,0,2,3.74,6.37,6.37,0,0,0,4.23,1.39,7.28,7.28,0,0,0,5.29-2.17l4.63,2.18a10.94,10.94,0,0,1-4.15,3.64,12.94,12.94,0,0,1-5.74,1.18A11.35,11.35,0,0,1,59,46.49a11.05,11.05,0,0,1-3.24-8.14A11.42,11.42,0,0,1,59,30a10.88,10.88,0,0,1,8.11-3.31A11.3,11.3,0,0,1,75.52,30a11.89,11.89,0,0,1,3.24,8.71Zm-5.46-4.29a5.47,5.47,0,0,0-2.15-2.95A6.31,6.31,0,0,0,67.4,31.4a6.67,6.67,0,0,0-4,1.28,7.12,7.12,0,0,0-2,2.81Z"/><path d="M79.21,27.27H96L86.18,44.56h9.27v4.63H77.72L87.53,31.9H79.21Z"/><path d="M3.29,51H5.68v7H9.46v2.09H5.68V76.75H3.29V60.06H0V58H3.29Z"/><path d="M8.64,58H11v2.74a8.42,8.42,0,0,1,2.33-2.41,4.68,4.68,0,0,1,2.55-.78,4.42,4.42,0,0,1,2.14.64l-1.25,2a3.37,3.37,0,0,0-1.28-.33,3.51,3.51,0,0,0-2.33,1,6.27,6.27,0,0,0-1.71,3.08A29.41,29.41,0,0,0,11,70.41v6.34H8.64Z"/><path d="M35.17,58V76.75H32.78V73.53a10.12,10.12,0,0,1-3.39,2.76,9.31,9.31,0,0,1-4.11.91,9.12,9.12,0,0,1-6.78-2.88,9.68,9.68,0,0,1-2.81-7,9.49,9.49,0,0,1,2.83-6.91,9.23,9.23,0,0,1,6.82-2.87,8.92,8.92,0,0,1,4.16,1,9.32,9.32,0,0,1,3.27,2.93V58Zm-9.63,1.89a7.25,7.25,0,0,0-6.4,3.75,7.56,7.56,0,0,0,0,7.54A7.35,7.35,0,0,0,21.86,74a7.1,7.1,0,0,0,3.66,1,7.51,7.51,0,0,0,3.74-1A7,7,0,0,0,32,71.27a7.67,7.67,0,0,0,1-3.82A7.43,7.43,0,0,0,30.79,62,7.08,7.08,0,0,0,25.54,59.86Z"/><path d="M35.27,58h2.52l6.27,13.75L50.33,58h2.52L44.29,76.75h-.45Z"/><path d="M68.72,70.52l2,1.07a11,11,0,0,1-2.3,3.16,9.13,9.13,0,0,1-2.93,1.83,10.24,10.24,0,0,1-3.69.63,8.9,8.9,0,0,1-7.14-3,10.15,10.15,0,0,1-2.57-6.79,10,10,0,0,1,2.18-6.35,8.88,8.88,0,0,1,7.39-3.54,9.18,9.18,0,0,1,7.61,3.62,10.15,10.15,0,0,1,2.06,6.39H54.56a7.61,7.61,0,0,0,2.08,5.34,6.64,6.64,0,0,0,5,2.08,8,8,0,0,0,2.78-.49,7.29,7.29,0,0,0,2.29-1.31A11.09,11.09,0,0,0,68.72,70.52Zm0-5.08a8,8,0,0,0-1.4-3.07,6.6,6.6,0,0,0-2.43-1.85,7.44,7.44,0,0,0-3.18-.7A6.84,6.84,0,0,0,57,61.58a8,8,0,0,0-2.18,3.86Z"/><path d="M71.92,50.75h2.39v26H71.92Z"/>
</symbol>
<symbol id="icon-logo" viewBox="0 0 240 32">
<title>logo</title>
<path class="cls-1" d="M16.27,11.62a3.59,3.59,0,0,1-.11.85,2.91,2.91,0,0,1-.37.86,3.31,3.31,0,0,1-.7.78,3.64,3.64,0,0,1-1.08.6,4.28,4.28,0,0,1,1.4.64,4.23,4.23,0,0,1,1,.95A3.8,3.8,0,0,1,17,17.4a3.63,3.63,0,0,1,.18,1.08,5.24,5.24,0,0,1-.36,1.94,4.76,4.76,0,0,1-1,1.61,5,5,0,0,1-1.67,1.1,5.71,5.71,0,0,1-2.21.41H4.75V7h6.62A5,5,0,0,1,15,8.25,4.4,4.4,0,0,1,16.27,11.62ZM11,13.54a1.42,1.42,0,0,0,1.12-.48,1.78,1.78,0,0,0,.42-1.22,1.89,1.89,0,0,0-.4-1.25A1.43,1.43,0,0,0,11,10.11H8.26v3.43Zm-2.77,2.9v4h3.4a1.6,1.6,0,0,0,.77-.18A1.77,1.77,0,0,0,13,19.8a1.91,1.91,0,0,0,.34-.66,2.61,2.61,0,0,0,.11-.73,2.37,2.37,0,0,0-.11-.71,1.73,1.73,0,0,0-.35-.62,2,2,0,0,0-.58-.46,1.72,1.72,0,0,0-.82-.18Z"/><path class="cls-1" d="M19.08,15.32A8.53,8.53,0,0,1,19.73,12a8.37,8.37,0,0,1,4.45-4.51,8.52,8.52,0,0,1,6.58,0A8.36,8.36,0,0,1,35.21,12a8.52,8.52,0,0,1,.65,3.32,8.37,8.37,0,0,1-.65,3.29,8.45,8.45,0,0,1-1.79,2.69,8.6,8.6,0,0,1-2.66,1.82,8.38,8.38,0,0,1-6.58,0,8.59,8.59,0,0,1-2.66-1.82,8.44,8.44,0,0,1-2.44-6Zm3.5,0A5.1,5.1,0,0,0,23,17.26a4.83,4.83,0,0,0,1,1.58,5,5,0,0,0,1.55,1.07,4.86,4.86,0,0,0,3.84,0A5.06,5.06,0,0,0,32,13.37a5.17,5.17,0,0,0-1-1.6,4.91,4.91,0,0,0-1.55-1.08,4.85,4.85,0,0,0-3.84,0A4.9,4.9,0,0,0,24,11.78a5,5,0,0,0-1,1.6A5.1,5.1,0,0,0,22.59,15.32Z"/><path class="cls-1" d="M41.43,18.7a2.12,2.12,0,0,0,.66,1.41,2.47,2.47,0,0,0,1.81.61,2.94,2.94,0,0,0,1.74-.47A1.61,1.61,0,0,0,46,17.93a3.24,3.24,0,0,0-1.64-.84l-2-.55a8.38,8.38,0,0,1-2.21-1,5,5,0,0,1-1.3-1.23A3.8,3.8,0,0,1,38.22,13a5.31,5.31,0,0,1-.16-1.21,4.55,4.55,0,0,1,.44-2,4.73,4.73,0,0,1,1.21-1.56,5.62,5.62,0,0,1,1.81-1,6.76,6.76,0,0,1,2.22-.36A6.84,6.84,0,0,1,46,7.17a5.35,5.35,0,0,1,1.78,1,4.46,4.46,0,0,1,1.18,1.58,5.17,5.17,0,0,1,.42,2.14h-3.5a1.79,1.79,0,0,0-.54-1.36,2.23,2.23,0,0,0-1.6-.52,2.48,2.48,0,0,0-1.52.46,1.43,1.43,0,0,0-.61,1.2,1.81,1.81,0,0,0,0,.38,1.13,1.13,0,0,0,.23.44,2.14,2.14,0,0,0,.54.46,3.6,3.6,0,0,0,1,.4l2,.62a8.41,8.41,0,0,1,2.41,1,5.28,5.28,0,0,1,1.38,1.3,3.73,3.73,0,0,1,.62,1.37A5.26,5.26,0,0,1,49.83,19a4.46,4.46,0,0,1-.54,2.14,4.65,4.65,0,0,1-1.35,1.51,6.1,6.1,0,0,1-1.89.9,7.83,7.83,0,0,1-2.16.3,7.38,7.38,0,0,1-2.44-.38,5.86,5.86,0,0,1-1.89-1.06,4.59,4.59,0,0,1-1.22-1.62,4.9,4.9,0,0,1-.43-2.05Z"/><path class="cls-1" d="M66.75,24.89l-2.47,1.49L62.5,23.5a8.65,8.65,0,0,1-2.23.29,8.27,8.27,0,0,1-3.32-.67,8.51,8.51,0,0,1-2.69-1.82,8.63,8.63,0,0,1-1.8-2.69,8.23,8.23,0,0,1-.66-3.29A8.4,8.4,0,0,1,52.45,12a8.58,8.58,0,0,1,1.8-2.7,8.39,8.39,0,0,1,6-2.47,8.42,8.42,0,0,1,3.34.66,8.33,8.33,0,0,1,2.68,1.81,8.58,8.58,0,0,1,1.8,2.7,8.4,8.4,0,0,1,.66,3.32,8.26,8.26,0,0,1-1,3.95,8.56,8.56,0,0,1-2.61,3ZM63.36,19.3a5,5,0,0,0,1.88-4,5.34,5.34,0,0,0-.38-2,5,5,0,0,0-2.65-2.75,4.86,4.86,0,0,0-3.9,0,4.9,4.9,0,0,0-1.58,1.1,5.2,5.2,0,0,0-1,1.64,5.34,5.34,0,0,0-.38,2,5.24,5.24,0,0,0,.29,1.74,5,5,0,0,0,.81,1.48,4.83,4.83,0,0,0,1.23,1.09,5,5,0,0,0,1.58.64,3.26,3.26,0,0,0,.69.12l.73,0L59.29,18.2l2.48-1.46Z"/><path class="cls-1" d="M77.93,20.48A2.87,2.87,0,0,0,79,20.27a2.81,2.81,0,0,0,.91-.58,2.85,2.85,0,0,0,.64-.89,2.73,2.73,0,0,0,.24-1.16V7h3.5V17.64a6.07,6.07,0,0,1-.52,2.53,5.84,5.84,0,0,1-1.4,1.94,6.29,6.29,0,0,1-2,1.24,6.82,6.82,0,0,1-2.42.43,6.92,6.92,0,0,1-2.43-.43,6.26,6.26,0,0,1-2-1.24,5.94,5.94,0,0,1-1.94-4.48V7h3.58V17.64a2.72,2.72,0,0,0,.24,1.16,2.85,2.85,0,0,0,.64.89,2.81,2.81,0,0,0,.91.58A2.86,2.86,0,0,0,77.93,20.48Z"/><path class="cls-1" d="M88,7H98.5v3.1h-7v3.77h6.1v3h-6.1v3.53h7.18v3.1H88Z"/><path class="cls-1" d="M97.85,25.64a3.08,3.08,0,0,0,.6.14l.66.07.56,0H100a1.61,1.61,0,0,0,1.46-.67,2.91,2.91,0,0,0,.43-1.61V7h3.5V23.62a7.92,7.92,0,0,1-.29,2.15,4.75,4.75,0,0,1-.93,1.79,4.43,4.43,0,0,1-1.67,1.21,6.33,6.33,0,0,1-2.51.44,7,7,0,0,1-1-.12q-.71-.12-1.38-.29Z"/><path class="cls-1" d="M108.31,15.32A8.53,8.53,0,0,1,109,12a8.37,8.37,0,0,1,4.45-4.51,8.52,8.52,0,0,1,6.58,0A8.37,8.37,0,0,1,124.44,12a8.53,8.53,0,0,1,.65,3.32,8.37,8.37,0,0,1-.65,3.29,8.49,8.49,0,0,1-1.79,2.69A8.6,8.6,0,0,1,120,23.12a8.38,8.38,0,0,1-6.58,0,8.58,8.58,0,0,1-2.66-1.82A8.47,8.47,0,0,1,109,18.6,8.37,8.37,0,0,1,108.31,15.32Zm3.5,0a5.08,5.08,0,0,0,.37,1.94,4.83,4.83,0,0,0,1,1.58,5,5,0,0,0,1.55,1.07,4.86,4.86,0,0,0,3.84,0,5.06,5.06,0,0,0,2.59-6.54,5.18,5.18,0,0,0-1-1.6,4.91,4.91,0,0,0-1.55-1.08,4.85,4.85,0,0,0-3.84,0,4.91,4.91,0,0,0-1.55,1.08,5,5,0,0,0-1,1.6A5.08,5.08,0,0,0,111.82,15.32Z"/><path class="cls-1" d="M139.25,22.23H136.8V18.51h-3.7V16.06h3.7v-3.7h2.45v3.7H143v2.45h-3.72Z"/><path class="cls-1" d="M151.94,23.55V7h6.48a7.55,7.55,0,0,1,3.17.64,6.77,6.77,0,0,1,2.35,1.75A7.57,7.57,0,0,1,165.4,12a10.62,10.62,0,0,1,.49,3.29,10.54,10.54,0,0,1-.49,3.26,7.43,7.43,0,0,1-1.45,2.62,6.71,6.71,0,0,1-2.35,1.73,7.67,7.67,0,0,1-3.17.62Zm3.5-3.19h3a3.52,3.52,0,0,0,1.73-.41,3.68,3.68,0,0,0,1.23-1.09,5,5,0,0,0,.74-1.61,7.31,7.31,0,0,0,.25-1.93,7.41,7.41,0,0,0-.25-2,5.26,5.26,0,0,0-.74-1.63,3.61,3.61,0,0,0-1.23-1.12,3.54,3.54,0,0,0-1.73-.41h-3Z"/><path class="cls-1" d="M172.42,7V23.55h-3.5V7Z"/><path class="cls-1" d="M178.94,18.7a2.11,2.11,0,0,0,.66,1.41,2.47,2.47,0,0,0,1.81.61,2.93,2.93,0,0,0,1.74-.47,1.61,1.61,0,0,0,.34-2.32,3.24,3.24,0,0,0-1.64-.84l-2-.55a8.4,8.4,0,0,1-2.21-1,5,5,0,0,1-1.29-1.23,3.78,3.78,0,0,1-.61-1.31,5.34,5.34,0,0,1-.16-1.21,4.55,4.55,0,0,1,.45-2,4.72,4.72,0,0,1,1.21-1.56,5.62,5.62,0,0,1,1.81-1,6.75,6.75,0,0,1,2.22-.36,6.83,6.83,0,0,1,2.22.35,5.36,5.36,0,0,1,1.78,1,4.48,4.48,0,0,1,1.18,1.58,5.18,5.18,0,0,1,.42,2.14h-3.5a1.79,1.79,0,0,0-.54-1.36,2.22,2.22,0,0,0-1.6-.52,2.48,2.48,0,0,0-1.52.46,1.43,1.43,0,0,0-.61,1.2,1.85,1.85,0,0,0,0,.38,1.12,1.12,0,0,0,.23.44,2.12,2.12,0,0,0,.54.46,3.59,3.59,0,0,0,1,.4l2,.62a8.41,8.41,0,0,1,2.4,1,5.32,5.32,0,0,1,1.38,1.3,3.74,3.74,0,0,1,.62,1.37,5.27,5.27,0,0,1,.12,1.28,4.49,4.49,0,0,1-.54,2.14,4.65,4.65,0,0,1-1.35,1.51,6.09,6.09,0,0,1-1.89.9,7.84,7.84,0,0,1-2.16.3,7.39,7.39,0,0,1-2.44-.38,5.84,5.84,0,0,1-1.89-1.06,4.59,4.59,0,0,1-1.22-1.62,4.9,4.9,0,0,1-.43-2.05Z"/><path class="cls-1" d="M190.27,7h10.46v3.1h-7v3.77h6.1v3h-6.1v3.53H201v3.1H190.27Z"/><path class="cls-1" d="M216.48,23.55h-3.14l-5.74-10v10h-3.5V7h3.22L213,16.9V7h3.5ZM209.25,3.68c-.08,0-.2.08-.36.23a1.15,1.15,0,0,0-.26.8h-1.8a4.77,4.77,0,0,1,.29-1.5,3,3,0,0,1,.59-1,2.1,2.1,0,0,1,.76-.52,2.2,2.2,0,0,1,.79-.16,1.36,1.36,0,0,1,.67.16,4.27,4.27,0,0,1,.53.34l.46.34a.72.72,0,0,0,.43.16.69.69,0,0,0,.36-.21,1.11,1.11,0,0,0,.27-.8h1.8a4.1,4.1,0,0,1-.28,1.49,3,3,0,0,1-.61,1,2,2,0,0,1-.77.51,2.29,2.29,0,0,1-.77.15,1.34,1.34,0,0,1-.65-.16,5.16,5.16,0,0,1-.54-.34l-.47-.34A.73.73,0,0,0,209.25,3.68Z"/><path class="cls-1" d="M219.43,15.32a8.53,8.53,0,0,1,.65-3.32,8.36,8.36,0,0,1,4.45-4.51,8.52,8.52,0,0,1,6.58,0A8.37,8.37,0,0,1,235.56,12a8.53,8.53,0,0,1,.65,3.32,8.37,8.37,0,0,1-.65,3.29,8.49,8.49,0,0,1-1.79,2.69,8.59,8.59,0,0,1-2.66,1.82,8.38,8.38,0,0,1-6.58,0,8.59,8.59,0,0,1-2.66-1.82,8.45,8.45,0,0,1-2.44-6Zm3.5,0a5.06,5.06,0,0,0,.37,1.94,4.81,4.81,0,0,0,1,1.58,5,5,0,0,0,1.55,1.07,4.86,4.86,0,0,0,3.84,0,5.06,5.06,0,0,0,2.59-6.54,5.17,5.17,0,0,0-1-1.6,4.9,4.9,0,0,0-1.55-1.08,4.85,4.85,0,0,0-3.84,0,4.88,4.88,0,0,0-1.55,1.08,5,5,0,0,0-1,1.6A5.06,5.06,0,0,0,222.93,15.32Z"/>
</symbol>
<symbol id="icon-arrow_back" viewBox="0 0 32 32">
<title>arrow_back</title>
<path d="M26.688 14.688v2.625h-16.25l7.438 7.5-1.875 1.875-10.688-10.688 10.688-10.688 1.875 1.875-7.438 7.5h16.25z"></path>
</symbol>
<symbol id="icon-arrow_forward" viewBox="0 0 32 32">
<title>arrow_forward</title>
<path d="M16 5.313l10.688 10.688-10.688 10.688-1.875-1.875 7.438-7.5h-16.25v-2.625h16.25l-7.438-7.5z"></path>
</symbol>
<symbol id="icon-play_arrow" viewBox="0 0 32 32">
<title>play_arrow</title>
<path d="M10.688 6.688l14.625 9.313-14.625 9.313v-18.625z"></path>
</symbol>
<symbol id="icon-sort" viewBox="0 0 32 32">
<title>sort</title>
<path d="M4 17.313v-2.625h16v2.625h-16zM4 8h24v2.688h-24v-2.688zM4 24v-2.688h8v2.688h-8z"></path>
</symbol>
</defs>
</svg>
